solid blade
  facet normal 0 -0.8137334585189819 -0.5812382102012634
    outer loop
      vertex 0.23899999260902405 0.18799999356269836 -0.003000000026077032
      vertex 0.2290000021457672 0.18799999356269836 -0.003000000026077032
      vertex 0.2290000021457672 0.19300000369548798 -0.009999999776482582
    endloop
  endfacet
  facet normal -0.08649889379739761 -0.8649889230728149 -0.4942793846130371
    outer loop
      vertex 0.23899999260902405 0.18799999356269836 -0.003000000026077032
      vertex 0.2290000021457672 0.19300000369548798 -0.009999999776482582
      vertex 0.23899999260902405 0.19200000166893005 -0.009999999776482582
    endloop
  endfacet
  facet normal 0 0 -1
    outer loop
      vertex 0.23899999260902405 0.19200000166893005 -0.009999999776482582
      vertex 0.2290000021457672 0.19300000369548798 -0.009999999776482582
      vertex 0.23000000417232513 0.21699999272823334 -0.009999999776482582
    endloop
  endfacet
  facet normal 0 0 -1
    outer loop
      vertex 0.23899999260902405 0.19200000166893005 -0.009999999776482582
      vertex 0.23000000417232513 0.21699999272823334 -0.009999999776482582
      vertex 0.2409999966621399 0.21699999272823334 -0.009999999776482582
    endloop
  endfacet
  facet normal 0 0.7592566013336182 0.650791347026825
    outer loop
      vertex 0.2409999966621399 0.22300000488758087 0.003000000026077032
      vertex 0.23000000417232513 0.22300000488758087 0.003000000026077032
      vertex 0.23000000417232513 0.21699999272823334 0.009999999776482582
    endloop
  endfacet
  facet normal 0 0.7592566013336182 0.650791347026825
    outer loop
      vertex 0.2409999966621399 0.22300000488758087 0.003000000026077032
      vertex 0.23000000417232513 0.21699999272823334 0.009999999776482582
      vertex 0.2409999966621399 0.21699999272823334 0.009999999776482582
    endloop
  endfacet
  facet normal 0 0 1
    outer loop
      vertex 0.2409999966621399 0.21699999272823334 0.009999999776482582
      vertex 0.23000000417232513 0.21699999272823334 0.009999999776482582
      vertex 0.2290000021457672 0.19300000369548798 0.009999999776482582
    endloop
  endfacet
  facet normal 0 0 1
    outer loop
      vertex 0.2409999966621399 0.21699999272823334 0.009999999776482582
      vertex 0.2290000021457672 0.19300000369548798 0.009999999776482582
      vertex 0.23899999260902405 0.19200000166893005 0.009999999776482582
    endloop
  endfacet
  facet normal 0.27142301201820374 0.7307542562484741 0.6263607740402222
    outer loop
      vertex 0.2409999966621399 0.22300000488758087 0.003000000026077032
      vertex 0.2409999966621399 0.21699999272823334 0.009999999776482582
      vertex 0.2460000067949295 0.2160000056028366 0.008999999612569809
    endloop
  endfacet
  facet normal 0.14002801477909088 0.7001400589942932 0.7001400589942932
    outer loop
      vertex 0.2409999966621399 0.22300000488758087 0.003000000026077032
      vertex 0.2460000067949295 0.2160000056028366 0.008999999612569809
      vertex 0.2460000067949295 0.22200000286102295 0.003000000026077032
    endloop
  endfacet
  facet normal -0.9993841648101807 0.028553832322359085 -0.020395595580339432
    outer loop
      vertex 0.23000000417232513 0.22300000488758087 0.003000000026077032
      vertex 0.2290000021457672 0.18799999356269836 0.003000000026077032
      vertex 0.2290000021457672 0.19300000369548798 0.009999999776482582
    endloop
  endfacet
  facet normal -0.9984976053237915 0.04160406440496445 0.035660628229379654
    outer loop
      vertex 0.23000000417232513 0.22300000488758087 0.003000000026077032
      vertex 0.2290000021457672 0.19300000369548798 0.009999999776482582
      vertex 0.23000000417232513 0.21699999272823334 0.009999999776482582
    endloop
  endfacet
  facet normal 0.07603585720062256 0.7050597667694092 0.7050597667694092
    outer loop
      vertex 0.27900001406669617 0.2199999988079071 0.003000000026077032
      vertex 0.27900001406669617 0.21400000154972076 0.008999999612569809
      vertex 0.38100001215934753 0.2029999941587448 0.008999999612569809
    endloop
  endfacet
  facet normal 0.07463843375444412 0.6988871097564697 0.7113268375396729
    outer loop
      vertex 0.27900001406669617 0.2199999988079071 0.003000000026077032
      vertex 0.38100001215934753 0.2029999941587448 0.008999999612569809
      vertex 0.38199999928474426 0.20900000631809235 0.003000000026077032
    endloop
  endfacet
  facet normal 0.166544571518898 -0.013323565945029259 0.9859439134597778
    outer loop
      vertex 0.2409999966621399 0.21699999272823334 0.009999999776482582
      vertex 0.23899999260902405 0.19200000166893005 0.009999999776482582
      vertex 0.24500000476837158 0.19300000369548798 0.008999999612569809
    endloop
  endfacet
  facet normal 0.1944827437400818 -0.008455771952867508 0.980869472026825
    outer loop
      vertex 0.2409999966621399 0.21699999272823334 0.009999999776482582
      vertex 0.24500000476837158 0.19300000369548798 0.008999999612569809
      vertex 0.2460000067949295 0.2160000056028366 0.008999999612569809
    endloop
  endfacet
  facet normal 0.19312073290348053 -0.01544965896755457 -0.981053352355957
    outer loop
      vertex 0.23899999260902405 0.19200000166893005 -0.009999999776482582
      vertex 0.2409999966621399 0.21699999272823334 -0.009999999776482582
      vertex 0.2460000067949295 0.2160000056028366 -0.008999999612569809
    endloop
  endfacet
  facet normal 0.16556191444396973 -0.007198343984782696 -0.986173152923584
    outer loop
      vertex 0.23899999260902405 0.19200000166893005 -0.009999999776482582
      vertex 0.2460000067949295 0.2160000056028366 -0.008999999612569809
      vertex 0.24500000476837158 0.19300000369548798 -0.008999999612569809
    endloop
  endfacet
  facet normal 0.221736341714859 -0.8466296792030334 -0.4837883710861206
    outer loop
      vertex 0.23899999260902405 0.18799999356269836 -0.003000000026077032
      vertex 0.23899999260902405 0.19200000166893005 -0.009999999776482582
      vertex 0.24500000476837158 0.19300000369548798 -0.008999999612569809
    endloop
  endfacet
  facet normal 0.1373605579137802 -0.8241633772850037 -0.5494422316551208
    outer loop
      vertex 0.23899999260902405 0.18799999356269836 -0.003000000026077032
      vertex 0.24500000476837158 0.19300000369548798 -0.008999999612569809
      vertex 0.24500000476837158 0.1889999955892563 -0.003000000026077032
    endloop
  endfacet
  facet normal -0.01054083090275526 0.002395643386989832 0.9999415874481201
    outer loop
      vertex 0.38100001215934753 0.2029999941587448 0.008999999612569809
      vertex 0.37599998712539673 0.1809999942779541 0.008999999612569809
      vertex 0.46700000762939453 0.164000004529953 0.009999999776482582
    endloop
  endfacet
  facet normal -0.010777236893773079 0.0018743020482361317 0.9999401569366455
    outer loop
      vertex 0.38100001215934753 0.2029999941587448 0.008999999612569809
      vertex 0.46700000762939453 0.164000004529953 0.009999999776482582
      vertex 0.47099998593330383 0.18700000643730164 0.009999999776482582
    endloop
  endfacet
  facet normal -0.08291850239038467 -0.8291850090026855 -0.5527899861335754
    outer loop
      vertex 0.2759999930858612 0.18700000643730164 -0.003000000026077032
      vertex 0.2759999930858612 0.19099999964237213 -0.008999999612569809
      vertex 0.37599998712539673 0.1809999942779541 -0.008999999612569809
    endloop
  endfacet
  facet normal -0.08310344815254211 -0.8227241635322571 -0.562333345413208
    outer loop
      vertex 0.2759999930858612 0.18700000643730164 -0.003000000026077032
      vertex 0.37599998712539673 0.1809999942779541 -0.008999999612569809
      vertex 0.375 0.1770000010728836 -0.003000000026077032
    endloop
  endfacet
  facet normal 0 0 1
    outer loop
      vertex 0.27900001406669617 0.21400000154972076 0.008999999612569809
      vertex 0.2759999930858612 0.19099999964237213 0.008999999612569809
      vertex 0.37599998712539673 0.1809999942779541 0.008999999612569809
    endloop
  endfacet
  facet normal 0 0 1
    outer loop
      vertex 0.27900001406669617 0.21400000154972076 0.008999999612569809
      vertex 0.37599998712539673 0.1809999942779541 0.008999999612569809
      vertex 0.38100001215934753 0.2029999941587448 0.008999999612569809
    endloop
  endfacet
  facet normal 0 0 -1
    outer loop
      vertex 0.2759999930858612 0.19099999964237213 -0.008999999612569809
      vertex 0.27900001406669617 0.21400000154972076 -0.008999999612569809
      vertex 0.38100001215934753 0.2029999941587448 -0.008999999612569809
    endloop
  endfacet
  facet normal 0 0 -1
    outer loop
      vertex 0.2759999930858612 0.19099999964237213 -0.008999999612569809
      vertex 0.38100001215934753 0.2029999941587448 -0.008999999612569809
      vertex 0.37599998712539673 0.1809999942779541 -0.008999999612569809
    endloop
  endfacet
  facet normal 0 0 -1
    outer loop
      vertex 0.46700000762939453 0.164000004529953 -0.009999999776482582
      vertex 0.47099998593330383 0.18700000643730164 -0.009999999776482582
      vertex 0.4880000054836273 0.18400000035762787 -0.009999999776482582
    endloop
  endfacet
  facet normal 0 0 -1
    outer loop
      vertex 0.46700000762939453 0.164000004529953 -0.009999999776482582
      vertex 0.4880000054836273 0.18400000035762787 -0.009999999776482582
      vertex 0.4830000102519989 0.16099999845027924 -0.009999999776482582
    endloop
  endfacet
  facet normal -0.01067897118628025 0.0024270389694720507 -0.999940037727356
    outer loop
      vertex 0.37599998712539673 0.1809999942779541 -0.008999999612569809
      vertex 0.38100001215934753 0.2029999941587448 -0.008999999612569809
      vertex 0.47099998593330383 0.18700000643730164 -0.009999999776482582
    endloop
  endfacet
  facet normal -0.010642599314451218 0.0018508868524804711 -0.9999416470527649
    outer loop
      vertex 0.37599998712539673 0.1809999942779541 -0.008999999612569809
      vertex 0.47099998593330383 0.18700000643730164 -0.009999999776482582
      vertex 0.46700000762939453 0.164000004529953 -0.009999999776482582
    endloop
  endfacet
  facet normal 0.11524103581905365 0.6927266716957092 0.7119334936141968
    outer loop
      vertex 0.38199999928474426 0.20900000631809235 0.003000000026077032
      vertex 0.38100001215934753 0.2029999941587448 0.008999999612569809
      vertex 0.47099998593330383 0.18700000643730164 0.009999999776482582
    endloop
  endfacet
  facet normal 0.1352415382862091 0.7522810697555542 0.6448123455047607
    outer loop
      vertex 0.38199999928474426 0.20900000631809235 0.003000000026077032
      vertex 0.47099998593330383 0.18700000643730164 0.009999999776482582
      vertex 0.47099998593330383 0.19300000369548798 0.003000000026077032
    endloop
  endfacet
  facet normal -0.15741807222366333 -0.8093664646148682 -0.5658140182495117
    outer loop
      vertex 0.375 0.1770000010728836 -0.003000000026077032
      vertex 0.37599998712539673 0.1809999942779541 -0.008999999612569809
      vertex 0.46700000762939453 0.164000004529953 -0.009999999776482582
    endloop
  endfacet
  facet normal -0.1572285294532776 -0.803612470626831 -0.5740088820457458
    outer loop
      vertex 0.375 0.1770000010728836 -0.003000000026077032
      vertex 0.46700000762939453 0.164000004529953 -0.009999999776482582
      vertex 0.46700000762939453 0.1589999943971634 -0.003000000026077032
    endloop
  endfacet
  facet normal -0.0810810774564743 0.7567567825317383 0.6486486196517944
    outer loop
      vertex 0.4880000054836273 0.1899999976158142 0.003000000026077032
      vertex 0.4880000054836273 0.18400000035762787 0.009999999776482582
      vertex 0.4959999918937683 0.18400000035762787 0.010999999940395355
    endloop
  endfacet
  facet normal -0.17407765984535217 0.6963106393814087 0.6963106393814087
    outer loop
      vertex 0.4880000054836273 0.1899999976158142 0.003000000026077032
      vertex 0.4959999918937683 0.18400000035762787 0.010999999940395355
      vertex 0.4959999918937683 0.19099999964237213 0.004000000189989805
    endloop
  endfacet
  facet normal 0.13279972970485687 0.7525317668914795 0.645027220249176
    outer loop
      vertex 0.47099998593330383 0.19300000369548798 0.003000000026077032
      vertex 0.47099998593330383 0.18700000643730164 0.009999999776482582
      vertex 0.4880000054836273 0.18400000035762787 0.009999999776482582
    endloop
  endfacet
  facet normal 0.13279972970485687 0.7525317668914795 0.645027220249176
    outer loop
      vertex 0.47099998593330383 0.19300000369548798 0.003000000026077032
      vertex 0.4880000054836273 0.18400000035762787 0.009999999776482582
      vertex 0.4880000054836273 0.1899999976158142 0.003000000026077032
    endloop
  endfacet
  facet normal -0.15082953870296478 -0.8044241666793823 -0.5745887160301208
    outer loop
      vertex 0.46700000762939453 0.1589999943971634 -0.003000000026077032
      vertex 0.46700000762939453 0.164000004529953 -0.009999999776482582
      vertex 0.4830000102519989 0.16099999845027924 -0.009999999776482582
    endloop
  endfacet
  facet normal -0.15082953870296478 -0.8044241666793823 -0.5745887160301208
    outer loop
      vertex 0.46700000762939453 0.1589999943971634 -0.003000000026077032
      vertex 0.4830000102519989 0.16099999845027924 -0.009999999776482582
      vertex 0.4830000102519989 0.15600000321865082 -0.003000000026077032
    endloop
  endfacet
  facet normal 0 0 1
    outer loop
      vertex 0.47099998593330383 0.18700000643730164 0.009999999776482582
      vertex 0.46700000762939453 0.164000004529953 0.009999999776482582
      vertex 0.4830000102519989 0.16099999845027924 0.009999999776482582
    endloop
  endfacet
  facet normal 0 0 1
    outer loop
      vertex 0.47099998593330383 0.18700000643730164 0.009999999776482582
      vertex 0.4830000102519989 0.16099999845027924 0.009999999776482582
      vertex 0.4880000054836273 0.18400000035762787 0.009999999776482582
    endloop
  endfacet
  facet normal 0.3857009708881378 -0.09256823360919952 0.9179683327674866
    outer loop
      vertex 0.4959999918937683 0.18400000035762787 0.010999999940395355
      vertex 0.49000000953674316 0.1589999943971634 0.010999999940395355
      vertex 0.4950000047683716 0.1599999964237213 0.008999999612569809
    endloop
  endfacet
  facet normal 0.4078271985054016 -0.09268800169229507 0.9083424210548401
    outer loop
      vertex 0.4959999918937683 0.18400000035762787 0.010999999940395355
      vertex 0.4950000047683716 0.1599999964237213 0.008999999612569809
      vertex 0.5 0.18199999630451202 0.008999999612569809
    endloop
  endfacet
  facet normal -0.3009057343006134 -0.7760201096534729 -0.55430006980896
    outer loop
      vertex 0.4830000102519989 0.15600000321865082 -0.003000000026077032
      vertex 0.4830000102519989 0.16099999845027924 -0.009999999776482582
      vertex 0.49000000953674316 0.1589999943971634 -0.010999999940395355
    endloop
  endfacet
  facet normal -0.19131158292293549 -0.8522061109542847 -0.48697492480278015
    outer loop
      vertex 0.4830000102519989 0.15600000321865082 -0.003000000026077032
      vertex 0.49000000953674316 0.1589999943971634 -0.010999999940395355
      vertex 0.49000000953674316 0.1550000011920929 -0.004000000189989805
    endloop
  endfacet
  facet normal -0.13324660062789917 0.02896665222942829 0.9906595349311829
    outer loop
      vertex 0.4880000054836273 0.18400000035762787 0.009999999776482582
      vertex 0.4830000102519989 0.16099999845027924 0.009999999776482582
      vertex 0.49000000953674316 0.1589999943971634 0.010999999940395355
    endloop
  endfacet
  facet normal -0.12397981435060501 0.029755154624581337 0.9918385148048401
    outer loop
      vertex 0.4880000054836273 0.18400000035762787 0.009999999776482582
      vertex 0.49000000953674316 0.1589999943971634 0.010999999940395355
      vertex 0.4959999918937683 0.18400000035762787 0.010999999940395355
    endloop
  endfacet
  facet normal -0.12398967146873474 0.026954276487231255 -0.9919173717498779
    outer loop
      vertex 0.4830000102519989 0.16099999845027924 -0.009999999776482582
      vertex 0.4880000054836273 0.18400000035762787 -0.009999999776482582
      vertex 0.4959999918937683 0.18400000035762787 -0.010999999940395355
    endloop
  endfacet
  facet normal -0.13244393467903137 0.03178654611110687 -0.9906806945800781
    outer loop
      vertex 0.4830000102519989 0.16099999845027924 -0.009999999776482582
      vertex 0.4959999918937683 0.18400000035762787 -0.010999999940395355
      vertex 0.49000000953674316 0.1589999943971634 -0.010999999940395355
    endloop
  endfacet
  facet normal 0.9764451384544373 -0.15256954729557037 -0.15256954729557037
    outer loop
      vertex 0.4950000047683716 0.15600000321865082 0.003000000026077032
      vertex 0.5 0.18799999356269836 0.003000000026077032
      vertex 0.5 0.18199999630451202 0.008999999612569809
    endloop
  endfacet
  facet normal 0.9646607637405396 -0.21924108266830444 0.14616072177886963
    outer loop
      vertex 0.4950000047683716 0.15600000321865082 0.003000000026077032
      vertex 0.5 0.18199999630451202 0.008999999612569809
      vertex 0.4950000047683716 0.1599999964237213 0.008999999612569809
    endloop
  endfacet
  facet normal 0.4057137370109558 -0.09737129509449005 -0.9087987542152405
    outer loop
      vertex 0.49000000953674316 0.1589999943971634 -0.010999999940395355
      vertex 0.4959999918937683 0.18400000035762787 -0.010999999940395355
      vertex 0.5 0.18199999630451202 -0.008999999612569809
    endloop
  endfacet
  facet normal 0.38500329852104187 -0.08750075101852417 -0.9187579154968262
    outer loop
      vertex 0.49000000953674316 0.1589999943971634 -0.010999999940395355
      vertex 0.5 0.18199999630451202 -0.008999999612569809
      vertex 0.4950000047683716 0.1599999964237213 -0.008999999612569809
    endloop
  endfacet
  facet normal 0.5773502588272095 0.5773502588272095 0.5773502588272095
    outer loop
      vertex 0.4959999918937683 0.19099999964237213 0.004000000189989805
      vertex 0.4959999918937683 0.18400000035762787 0.010999999940395355
      vertex 0.5 0.18199999630451202 0.008999999612569809
    endloop
  endfacet
  facet normal 0.5773502588272095 0.5773502588272095 0.5773502588272095
    outer loop
      vertex 0.4959999918937683 0.19099999964237213 0.004000000189989805
      vertex 0.5 0.18199999630451202 0.008999999612569809
      vertex 0.5 0.18799999356269836 0.003000000026077032
    endloop
  endfacet
  facet normal 0.34874290227890015 -0.8137334585189819 -0.4649905562400818
    outer loop
      vertex 0.49000000953674316 0.1550000011920929 -0.004000000189989805
      vertex 0.49000000953674316 0.1589999943971634 -0.010999999940395355
      vertex 0.4950000047683716 0.1599999964237213 -0.008999999612569809
    endloop
  endfacet
  facet normal 0.26726123690605164 -0.8017837405204773 -0.5345224738121033
    outer loop
      vertex 0.49000000953674316 0.1550000011920929 -0.004000000189989805
      vertex 0.4950000047683716 0.1599999964237213 -0.008999999612569809
      vertex 0.4950000047683716 0.15600000321865082 -0.003000000026077032
    endloop
  endfacet
  facet normal 0.26325133442878723 -0.8376178741455078 0.47863876819610596
    outer loop
      vertex 0.49000000953674316 0.1589999943971634 0.010999999940395355
      vertex 0.49000000953674316 0.1550000011920929 0.004000000189989805
      vertex 0.4950000047683716 0.15600000321865082 0.003000000026077032
    endloop
  endfacet
  facet normal 0.36196139454841614 -0.7756315469741821 0.5170876979827881
    outer loop
      vertex 0.49000000953674316 0.1589999943971634 0.010999999940395355
      vertex 0.4950000047683716 0.15600000321865082 0.003000000026077032
      vertex 0.4950000047683716 0.1599999964237213 0.008999999612569809
    endloop
  endfacet
  facet normal 0.1961161345243454 -0.9805806875228882 0
    outer loop
      vertex 0.49000000953674316 0.1550000011920929 0.004000000189989805
      vertex 0.49000000953674316 0.1550000011920929 -0.004000000189989805
      vertex 0.4950000047683716 0.15600000321865082 -0.003000000026077032
    endloop
  endfacet
  facet normal 0.1961161345243454 -0.9805806875228882 0
    outer loop
      vertex 0.49000000953674316 0.1550000011920929 0.004000000189989805
      vertex 0.4950000047683716 0.15600000321865082 -0.003000000026077032
      vertex 0.4950000047683716 0.15600000321865082 0.003000000026077032
    endloop
  endfacet
  facet normal 0.5773502588272095 0.5773502588272095 -0.5773502588272095
    outer loop
      vertex 0.4959999918937683 0.18400000035762787 -0.010999999940395355
      vertex 0.4959999918937683 0.19099999964237213 -0.004000000189989805
      vertex 0.5 0.18799999356269836 -0.003000000026077032
    endloop
  endfacet
  facet normal 0.5773502588272095 0.5773502588272095 -0.5773502588272095
    outer loop
      vertex 0.4959999918937683 0.18400000035762787 -0.010999999940395355
      vertex 0.5 0.18799999356269836 -0.003000000026077032
      vertex 0.5 0.18199999630451202 -0.008999999612569809
    endloop
  endfacet
  facet normal 0.6000000238418579 0.800000011920929 0
    outer loop
      vertex 0.4959999918937683 0.19099999964237213 -0.004000000189989805
      vertex 0.4959999918937683 0.19099999964237213 0.004000000189989805
      vertex 0.5 0.18799999356269836 0.003000000026077032
    endloop
  endfacet
  facet normal 0.6000000238418579 0.800000011920929 0
    outer loop
      vertex 0.4959999918937683 0.19099999964237213 -0.004000000189989805
      vertex 0.5 0.18799999356269836 0.003000000026077032
      vertex 0.5 0.18799999356269836 -0.003000000026077032
    endloop
  endfacet
  facet normal 0.9520331025123596 -0.21637116372585297 0.21637116372585297
    outer loop
      vertex 0.4950000047683716 0.1599999964237213 -0.008999999612569809
      vertex 0.5 0.18199999630451202 -0.008999999612569809
      vertex 0.5 0.18799999356269836 -0.003000000026077032
    endloop
  endfacet
  facet normal 0.9828206896781921 -0.15356573462486267 -0.10237715393304825
    outer loop
      vertex 0.4950000047683716 0.1599999964237213 -0.008999999612569809
      vertex 0.5 0.18799999356269836 -0.003000000026077032
      vertex 0.4950000047683716 0.15600000321865082 -0.003000000026077032
    endloop
  endfacet
  facet normal 0.9880120158195496 -0.15437687933444977 0
    outer loop
      vertex 0.4950000047683716 0.15600000321865082 -0.003000000026077032
      vertex 0.5 0.18799999356269836 -0.003000000026077032
      vertex 0.5 0.18799999356269836 0.003000000026077032
    endloop
  endfacet
  facet normal 0.9880120158195496 -0.15437687933444977 0
    outer loop
      vertex 0.4950000047683716 0.15600000321865082 -0.003000000026077032
      vertex 0.5 0.18799999356269836 0.003000000026077032
      vertex 0.4950000047683716 0.15600000321865082 0.003000000026077032
    endloop
  endfacet
  facet normal -0.1954386979341507 -0.7980413436889648 0.5700295567512512
    outer loop
      vertex 0.4830000102519989 0.16099999845027924 0.009999999776482582
      vertex 0.4830000102519989 0.15600000321865082 0.003000000026077032
      vertex 0.49000000953674316 0.1550000011920929 0.004000000189989805
    endloop
  endfacet
  facet normal -0.30386510491371155 -0.8271883130073547 0.4726790487766266
    outer loop
      vertex 0.4830000102519989 0.16099999845027924 0.009999999776482582
      vertex 0.49000000953674316 0.1550000011920929 0.004000000189989805
      vertex 0.49000000953674316 0.1589999943971634 0.010999999940395355
    endloop
  endfacet
  facet normal -0.1414213627576828 -0.9899494647979736 0
    outer loop
      vertex 0.4830000102519989 0.15600000321865082 0.003000000026077032
      vertex 0.4830000102519989 0.15600000321865082 -0.003000000026077032
      vertex 0.49000000953674316 0.1550000011920929 -0.004000000189989805
    endloop
  endfacet
  facet normal -0.1414213627576828 -0.9899494647979736 0
    outer loop
      vertex 0.4830000102519989 0.15600000321865082 0.003000000026077032
      vertex 0.49000000953674316 0.1550000011920929 -0.004000000189989805
      vertex 0.49000000953674316 0.1550000011920929 0.004000000189989805
    endloop
  endfacet
  facet normal -0.15082953870296478 -0.8044241666793823 0.5745887160301208
    outer loop
      vertex 0.46700000762939453 0.164000004529953 0.009999999776482582
      vertex 0.46700000762939453 0.1589999943971634 0.003000000026077032
      vertex 0.4830000102519989 0.15600000321865082 0.003000000026077032
    endloop
  endfacet
  facet normal -0.15082953870296478 -0.8044241666793823 0.5745887160301208
    outer loop
      vertex 0.46700000762939453 0.164000004529953 0.009999999776482582
      vertex 0.4830000102519989 0.15600000321865082 0.003000000026077032
      vertex 0.4830000102519989 0.16099999845027924 0.009999999776482582
    endloop
  endfacet
  facet normal -0.18428853154182434 -0.9828721880912781 0
    outer loop
      vertex 0.46700000762939453 0.1589999943971634 0.003000000026077032
      vertex 0.46700000762939453 0.1589999943971634 -0.003000000026077032
      vertex 0.4830000102519989 0.15600000321865082 -0.003000000026077032
    endloop
  endfacet
  facet normal -0.18428853154182434 -0.9828721880912781 0
    outer loop
      vertex 0.46700000762939453 0.1589999943971634 0.003000000026077032
      vertex 0.4830000102519989 0.15600000321865082 -0.003000000026077032
      vertex 0.4830000102519989 0.15600000321865082 0.003000000026077032
    endloop
  endfacet
  facet normal 0.13279972970485687 0.7525317668914795 -0.645027220249176
    outer loop
      vertex 0.47099998593330383 0.18700000643730164 -0.009999999776482582
      vertex 0.47099998593330383 0.19300000369548798 -0.003000000026077032
      vertex 0.4880000054836273 0.1899999976158142 -0.003000000026077032
    endloop
  endfacet
  facet normal 0.13279972970485687 0.7525317668914795 -0.645027220249176
    outer loop
      vertex 0.47099998593330383 0.18700000643730164 -0.009999999776482582
      vertex 0.4880000054836273 0.1899999976158142 -0.003000000026077032
      vertex 0.4880000054836273 0.18400000035762787 -0.009999999776482582
    endloop
  endfacet
  facet normal 0.17378532886505127 0.9847835302352905 0
    outer loop
      vertex 0.47099998593330383 0.19300000369548798 -0.003000000026077032
      vertex 0.47099998593330383 0.19300000369548798 0.003000000026077032
      vertex 0.4880000054836273 0.1899999976158142 0.003000000026077032
    endloop
  endfacet
  facet normal 0.17378532886505127 0.9847835302352905 0
    outer loop
      vertex 0.47099998593330383 0.19300000369548798 -0.003000000026077032
      vertex 0.4880000054836273 0.1899999976158142 0.003000000026077032
      vertex 0.4880000054836273 0.1899999976158142 -0.003000000026077032
    endloop
  endfacet
  facet normal -0.1735803782939911 0.7477308511734009 -0.6409121751785278
    outer loop
      vertex 0.4880000054836273 0.18400000035762787 -0.009999999776482582
      vertex 0.4880000054836273 0.1899999976158142 -0.003000000026077032
      vertex 0.4959999918937683 0.19099999964237213 -0.004000000189989805
    endloop
  endfacet
  facet normal -0.08804509043693542 0.7043607234954834 -0.7043607234954834
    outer loop
      vertex 0.4880000054836273 0.18400000035762787 -0.009999999776482582
      vertex 0.4959999918937683 0.19099999964237213 -0.004000000189989805
      vertex 0.4959999918937683 0.18400000035762787 -0.010999999940395355
    endloop
  endfacet
  facet normal -0.12403473258018494 0.9922778606414795 0
    outer loop
      vertex 0.4880000054836273 0.1899999976158142 -0.003000000026077032
      vertex 0.4880000054836273 0.1899999976158142 0.003000000026077032
      vertex 0.4959999918937683 0.19099999964237213 0.004000000189989805
    endloop
  endfacet
  facet normal -0.12403473258018494 0.9922778606414795 0
    outer loop
      vertex 0.4880000054836273 0.1899999976158142 -0.003000000026077032
      vertex 0.4959999918937683 0.19099999964237213 0.004000000189989805
      vertex 0.4959999918937683 0.19099999964237213 -0.004000000189989805
    endloop
  endfacet
  facet normal -0.15831692516803741 -0.809175431728363 0.5658364295959473
    outer loop
      vertex 0.37599998712539673 0.1809999942779541 0.008999999612569809
      vertex 0.375 0.1770000010728836 0.003000000026077032
      vertex 0.46700000762939453 0.1589999943971634 0.003000000026077032
    endloop
  endfacet
  facet normal -0.1564527153968811 -0.8037127256393433 0.5740805268287659
    outer loop
      vertex 0.37599998712539673 0.1809999942779541 0.008999999612569809
      vertex 0.46700000762939453 0.1589999943971634 0.003000000026077032
      vertex 0.46700000762939453 0.164000004529953 0.009999999776482582
    endloop
  endfacet
  facet normal -0.19201160967350006 -0.9813926815986633 0
    outer loop
      vertex 0.375 0.1770000010728836 0.003000000026077032
      vertex 0.375 0.1770000010728836 -0.003000000026077032
      vertex 0.46700000762939453 0.1589999943971634 -0.003000000026077032
    endloop
  endfacet
  facet normal -0.19201160967350006 -0.9813926815986633 0
    outer loop
      vertex 0.375 0.1770000010728836 0.003000000026077032
      vertex 0.46700000762939453 0.1589999943971634 -0.003000000026077032
      vertex 0.46700000762939453 0.1589999943971634 0.003000000026077032
    endloop
  endfacet
  facet normal 0.12425979226827621 0.6911951303482056 -0.7119050621986389
    outer loop
      vertex 0.38100001215934753 0.2029999941587448 -0.008999999612569809
      vertex 0.38199999928474426 0.20900000631809235 -0.003000000026077032
      vertex 0.47099998593330383 0.19300000369548798 -0.003000000026077032
    endloop
  endfacet
  facet normal 0.12671813368797302 0.7531360387802124 -0.6455451846122742
    outer loop
      vertex 0.38100001215934753 0.2029999941587448 -0.008999999612569809
      vertex 0.47099998593330383 0.19300000369548798 -0.003000000026077032
      vertex 0.47099998593330383 0.18700000643730164 -0.009999999776482582
    endloop
  endfacet
  facet normal 0.1769387573003769 0.984221875667572 0
    outer loop
      vertex 0.38199999928474426 0.20900000631809235 -0.003000000026077032
      vertex 0.38199999928474426 0.20900000631809235 0.003000000026077032
      vertex 0.47099998593330383 0.19300000369548798 0.003000000026077032
    endloop
  endfacet
  facet normal 0.1769387573003769 0.984221875667572 0
    outer loop
      vertex 0.38199999928474426 0.20900000631809235 -0.003000000026077032
      vertex 0.47099998593330383 0.19300000369548798 0.003000000026077032
      vertex 0.47099998593330383 0.19300000369548798 -0.003000000026077032
    endloop
  endfacet
  facet normal -0.08375021070241928 -0.8291271328926086 0.5527514219284058
    outer loop
      vertex 0.2759999930858612 0.19099999964237213 0.008999999612569809
      vertex 0.2759999930858612 0.18700000643730164 0.003000000026077032
      vertex 0.375 0.1770000010728836 0.003000000026077032
    endloop
  endfacet
  facet normal -0.08228448033332825 -0.8228448033332825 0.5622772574424744
    outer loop
      vertex 0.2759999930858612 0.19099999964237213 0.008999999612569809
      vertex 0.375 0.1770000010728836 0.003000000026077032
      vertex 0.37599998712539673 0.1809999942779541 0.008999999612569809
    endloop
  endfacet
  facet normal -0.10049870610237122 -0.9949371814727783 0
    outer loop
      vertex 0.2759999930858612 0.18700000643730164 0.003000000026077032
      vertex 0.2759999930858612 0.18700000643730164 -0.003000000026077032
      vertex 0.375 0.1770000010728836 -0.003000000026077032
    endloop
  endfacet
  facet normal -0.10049870610237122 -0.9949371814727783 0
    outer loop
      vertex 0.2759999930858612 0.18700000643730164 0.003000000026077032
      vertex 0.375 0.1770000010728836 -0.003000000026077032
      vertex 0.375 0.1770000010728836 0.003000000026077032
    endloop
  endfacet
  facet normal 0.14321547746658325 -0.8592928647994995 0.4910244941711426
    outer loop
      vertex 0.23899999260902405 0.19200000166893005 0.009999999776482582
      vertex 0.23899999260902405 0.18799999356269836 0.003000000026077032
      vertex 0.24500000476837158 0.1889999955892563 0.003000000026077032
    endloop
  endfacet
  facet normal 0.22518867254257202 -0.8106792569160461 0.5404528379440308
    outer loop
      vertex 0.23899999260902405 0.19200000166893005 0.009999999776482582
      vertex 0.24500000476837158 0.1889999955892563 0.003000000026077032
      vertex 0.24500000476837158 0.19300000369548798 0.008999999612569809
    endloop
  endfacet
  facet normal 0.16439898312091827 -0.986393928527832 0
    outer loop
      vertex 0.23899999260902405 0.18799999356269836 0.003000000026077032
      vertex 0.23899999260902405 0.18799999356269836 -0.003000000026077032
      vertex 0.24500000476837158 0.1889999955892563 -0.003000000026077032
    endloop
  endfacet
  facet normal 0.16439898312091827 -0.986393928527832 0
    outer loop
      vertex 0.23899999260902405 0.18799999356269836 0.003000000026077032
      vertex 0.24500000476837158 0.1889999955892563 -0.003000000026077032
      vertex 0.24500000476837158 0.1889999955892563 0.003000000026077032
    endloop
  endfacet
  facet normal 0.07530184835195541 0.7050991654396057 -0.7050991654396057
    outer loop
      vertex 0.27900001406669617 0.21400000154972076 -0.008999999612569809
      vertex 0.27900001406669617 0.2199999988079071 -0.003000000026077032
      vertex 0.38199999928474426 0.20900000631809235 -0.003000000026077032
    endloop
  endfacet
  facet normal 0.07535950839519501 0.6987881660461426 -0.7113480567932129
    outer loop
      vertex 0.27900001406669617 0.21400000154972076 -0.008999999612569809
      vertex 0.38199999928474426 0.20900000631809235 -0.003000000026077032
      vertex 0.38100001215934753 0.2029999941587448 -0.008999999612569809
    endloop
  endfacet
  facet normal 0.10619225353002548 0.9943456053733826 0
    outer loop
      vertex 0.27900001406669617 0.2199999988079071 -0.003000000026077032
      vertex 0.27900001406669617 0.2199999988079071 0.003000000026077032
      vertex 0.38199999928474426 0.20900000631809235 0.003000000026077032
    endloop
  endfacet
  facet normal 0.10619225353002548 0.9943456053733826 0
    outer loop
      vertex 0.27900001406669617 0.2199999988079071 -0.003000000026077032
      vertex 0.38199999928474426 0.20900000631809235 0.003000000026077032
      vertex 0.38199999928474426 0.20900000631809235 -0.003000000026077032
    endloop
  endfacet
  facet normal -0.9986916184425354 0.04161215201020241 0.029722964391112328
    outer loop
      vertex 0.23000000417232513 0.21699999272823334 -0.009999999776482582
      vertex 0.2290000021457672 0.19300000369548798 -0.009999999776482582
      vertex 0.2290000021457672 0.18799999356269836 -0.003000000026077032
    endloop
  endfacet
  facet normal -0.9992927312850952 0.028551220893859863 -0.024472475051879883
    outer loop
      vertex 0.23000000417232513 0.21699999272823334 -0.009999999776482582
      vertex 0.2290000021457672 0.18799999356269836 -0.003000000026077032
      vertex 0.23000000417232513 0.22300000488758087 -0.003000000026077032
    endloop
  endfacet
  facet normal -0.9995920658111572 0.028559774160385132 0
    outer loop
      vertex 0.23000000417232513 0.22300000488758087 -0.003000000026077032
      vertex 0.2290000021457672 0.18799999356269836 -0.003000000026077032
      vertex 0.2290000021457672 0.18799999356269836 0.003000000026077032
    endloop
  endfacet
  facet normal -0.9995920658111572 0.028559774160385132 0
    outer loop
      vertex 0.23000000417232513 0.22300000488758087 -0.003000000026077032
      vertex 0.2290000021457672 0.18799999356269836 0.003000000026077032
      vertex 0.23000000417232513 0.22300000488758087 0.003000000026077032
    endloop
  endfacet
  facet normal 0.1501302719116211 0.7506513595581055 -0.6434154510498047
    outer loop
      vertex 0.2409999966621399 0.21699999272823334 -0.009999999776482582
      vertex 0.2409999966621399 0.22300000488758087 -0.003000000026077032
      vertex 0.2460000067949295 0.22200000286102295 -0.003000000026077032
    endloop
  endfacet
  facet normal 0.27216553688049316 0.6804138422012329 -0.6804138422012329
    outer loop
      vertex 0.2409999966621399 0.21699999272823334 -0.009999999776482582
      vertex 0.2460000067949295 0.22200000286102295 -0.003000000026077032
      vertex 0.2460000067949295 0.2160000056028366 -0.008999999612569809
    endloop
  endfacet
  facet normal 0.1961161345243454 0.9805806875228882 0
    outer loop
      vertex 0.2409999966621399 0.22300000488758087 -0.003000000026077032
      vertex 0.2409999966621399 0.22300000488758087 0.003000000026077032
      vertex 0.2460000067949295 0.22200000286102295 0.003000000026077032
    endloop
  endfacet
  facet normal 0.1961161345243454 0.9805806875228882 0
    outer loop
      vertex 0.2409999966621399 0.22300000488758087 -0.003000000026077032
      vertex 0.2460000067949295 0.22200000286102295 0.003000000026077032
      vertex 0.2460000067949295 0.22200000286102295 -0.003000000026077032
    endloop
  endfacet
  facet normal 0 0.7592566013336182 -0.650791347026825
    outer loop
      vertex 0.2409999966621399 0.21699999272823334 -0.009999999776482582
      vertex 0.23000000417232513 0.21699999272823334 -0.009999999776482582
      vertex 0.23000000417232513 0.22300000488758087 -0.003000000026077032
    endloop
  endfacet
  facet normal 0 0.7592566013336182 -0.650791347026825
    outer loop
      vertex 0.2409999966621399 0.21699999272823334 -0.009999999776482582
      vertex 0.23000000417232513 0.22300000488758087 -0.003000000026077032
      vertex 0.2409999966621399 0.22300000488758087 -0.003000000026077032
    endloop
  endfacet
  facet normal 0 1 0
    outer loop
      vertex 0.2409999966621399 0.22300000488758087 -0.003000000026077032
      vertex 0.23000000417232513 0.22300000488758087 -0.003000000026077032
      vertex 0.23000000417232513 0.22300000488758087 0.003000000026077032
    endloop
  endfacet
  facet normal 0 1 0
    outer loop
      vertex 0.2409999966621399 0.22300000488758087 -0.003000000026077032
      vertex 0.23000000417232513 0.22300000488758087 0.003000000026077032
      vertex 0.2409999966621399 0.22300000488758087 0.003000000026077032
    endloop
  endfacet
  facet normal -0.08110526949167252 -0.811052680015564 0.5793233513832092
    outer loop
      vertex 0.23899999260902405 0.19200000166893005 0.009999999776482582
      vertex 0.2290000021457672 0.19300000369548798 0.009999999776482582
      vertex 0.2290000021457672 0.18799999356269836 0.003000000026077032
    endloop
  endfacet
  facet normal 0 -0.8682431578636169 0.49613893032073975
    outer loop
      vertex 0.23899999260902405 0.19200000166893005 0.009999999776482582
      vertex 0.2290000021457672 0.18799999356269836 0.003000000026077032
      vertex 0.23899999260902405 0.18799999356269836 0.003000000026077032
    endloop
  endfacet
  facet normal 0 -1 0
    outer loop
      vertex 0.23899999260902405 0.18799999356269836 0.003000000026077032
      vertex 0.2290000021457672 0.18799999356269836 0.003000000026077032
      vertex 0.2290000021457672 0.18799999356269836 -0.003000000026077032
    endloop
  endfacet
  facet normal 0 -1 0
    outer loop
      vertex 0.23899999260902405 0.18799999356269836 0.003000000026077032
      vertex 0.2290000021457672 0.18799999356269836 -0.003000000026077032
      vertex 0.23899999260902405 0.18799999356269836 -0.003000000026077032
    endloop
  endfacet
  facet normal 0.06049505993723869 0.9981684684753418 0
    outer loop
      vertex 0.2460000067949295 0.22200000286102295 -0.003000000026077032
      vertex 0.2460000067949295 0.22200000286102295 0.003000000026077032
      vertex 0.27900001406669617 0.2199999988079071 0.003000000026077032
    endloop
  endfacet
  facet normal 0.06049505993723869 0.9981684684753418 0
    outer loop
      vertex 0.2460000067949295 0.22200000286102295 -0.003000000026077032
      vertex 0.27900001406669617 0.2199999988079071 0.003000000026077032
      vertex 0.27900001406669617 0.2199999988079071 -0.003000000026077032
    endloop
  endfacet
  facet normal 0.04281565919518471 0.706458330154419 -0.706458330154419
    outer loop
      vertex 0.2460000067949295 0.2160000056028366 -0.008999999612569809
      vertex 0.2460000067949295 0.22200000286102295 -0.003000000026077032
      vertex 0.27900001406669617 0.2199999988079071 -0.003000000026077032
    endloop
  endfacet
  facet normal 0.04281565919518471 0.706458330154419 -0.706458330154419
    outer loop
      vertex 0.2460000067949295 0.2160000056028366 -0.008999999612569809
      vertex 0.27900001406669617 0.2199999988079071 -0.003000000026077032
      vertex 0.27900001406669617 0.21400000154972076 -0.008999999612569809
    endloop
  endfacet
  facet normal -0.06438227742910385 -0.9979252815246582 0
    outer loop
      vertex 0.24500000476837158 0.1889999955892563 0.003000000026077032
      vertex 0.24500000476837158 0.1889999955892563 -0.003000000026077032
      vertex 0.2759999930858612 0.18700000643730164 -0.003000000026077032
    endloop
  endfacet
  facet normal -0.06438227742910385 -0.9979252815246582 0
    outer loop
      vertex 0.24500000476837158 0.1889999955892563 0.003000000026077032
      vertex 0.2759999930858612 0.18700000643730164 -0.003000000026077032
      vertex 0.2759999930858612 0.18700000643730164 0.003000000026077032
    endloop
  endfacet
  facet normal -0.05360348895192146 -0.830854058265686 0.5539026856422424
    outer loop
      vertex 0.24500000476837158 0.19300000369548798 0.008999999612569809
      vertex 0.24500000476837158 0.1889999955892563 0.003000000026077032
      vertex 0.2759999930858612 0.18700000643730164 0.003000000026077032
    endloop
  endfacet
  facet normal -0.05360348895192146 -0.830854058265686 0.5539026856422424
    outer loop
      vertex 0.24500000476837158 0.19300000369548798 0.008999999612569809
      vertex 0.2759999930858612 0.18700000643730164 0.003000000026077032
      vertex 0.2759999930858612 0.19099999964237213 0.008999999612569809
    endloop
  endfacet
  facet normal 0 0 -1
    outer loop
      vertex 0.24500000476837158 0.19300000369548798 -0.008999999612569809
      vertex 0.2460000067949295 0.2160000056028366 -0.008999999612569809
      vertex 0.27900001406669617 0.21400000154972076 -0.008999999612569809
    endloop
  endfacet
  facet normal 0 0 -1
    outer loop
      vertex 0.24500000476837158 0.19300000369548798 -0.008999999612569809
      vertex 0.27900001406669617 0.21400000154972076 -0.008999999612569809
      vertex 0.2759999930858612 0.19099999964237213 -0.008999999612569809
    endloop
  endfacet
  facet normal 0 0 1
    outer loop
      vertex 0.2460000067949295 0.2160000056028366 0.008999999612569809
      vertex 0.24500000476837158 0.19300000369548798 0.008999999612569809
      vertex 0.2759999930858612 0.19099999964237213 0.008999999612569809
    endloop
  endfacet
  facet normal 0 0 1
    outer loop
      vertex 0.2460000067949295 0.2160000056028366 0.008999999612569809
      vertex 0.2759999930858612 0.19099999964237213 0.008999999612569809
      vertex 0.27900001406669617 0.21400000154972076 0.008999999612569809
    endloop
  endfacet
  facet normal -0.05360348895192146 -0.830854058265686 -0.5539026856422424
    outer loop
      vertex 0.24500000476837158 0.1889999955892563 -0.003000000026077032
      vertex 0.24500000476837158 0.19300000369548798 -0.008999999612569809
      vertex 0.2759999930858612 0.19099999964237213 -0.008999999612569809
    endloop
  endfacet
  facet normal -0.05360348895192146 -0.830854058265686 -0.5539026856422424
    outer loop
      vertex 0.24500000476837158 0.1889999955892563 -0.003000000026077032
      vertex 0.2759999930858612 0.19099999964237213 -0.008999999612569809
      vertex 0.2759999930858612 0.18700000643730164 -0.003000000026077032
    endloop
  endfacet
  facet normal 0.04281565919518471 0.706458330154419 0.706458330154419
    outer loop
      vertex 0.2460000067949295 0.22200000286102295 0.003000000026077032
      vertex 0.2460000067949295 0.2160000056028366 0.008999999612569809
      vertex 0.27900001406669617 0.21400000154972076 0.008999999612569809
    endloop
  endfacet
  facet normal 0.04281565919518471 0.706458330154419 0.706458330154419
    outer loop
      vertex 0.2460000067949295 0.22200000286102295 0.003000000026077032
      vertex 0.27900001406669617 0.21400000154972076 0.008999999612569809
      vertex 0.27900001406669617 0.2199999988079071 0.003000000026077032
    endloop
  endfacet
  facet normal -0.06987030059099197 -0.9781842231750488 -0.1956368386745453
    outer loop
      vertex 0.22499999403953552 0.1889999955892563 0
      vertex 0.19699999690055847 0.19099999964237213 0
      vertex 0.19699999690055847 0.19200000166893005 -0.004999999888241291
    endloop
  endfacet
  facet normal -0.033141665160655975 -0.9279666543006897 -0.37118664383888245
    outer loop
      vertex 0.22499999403953552 0.1889999955892563 0
      vertex 0.19699999690055847 0.19200000166893005 -0.004999999888241291
      vertex 0.22499999403953552 0.19099999964237213 -0.004999999888241291
    endloop
  endfacet
  facet normal 0 0 -1
    outer loop
      vertex 0.22499999403953552 0.19099999964237213 -0.004999999888241291
      vertex 0.19699999690055847 0.19200000166893005 -0.004999999888241291
      vertex 0.19699999690055847 0.22300000488758087 -0.004999999888241291
    endloop
  endfacet
  facet normal 0 0 -1
    outer loop
      vertex 0.22499999403953552 0.19099999964237213 -0.004999999888241291
      vertex 0.19699999690055847 0.22300000488758087 -0.004999999888241291
      vertex 0.22599999606609344 0.22300000488758087 -0.004999999888241291
    endloop
  endfacet
  facet normal -0.034462276846170425 0.9994059801101685 0
    outer loop
      vertex 0.22599999606609344 0.2240000069141388 0
      vertex 0.19699999690055847 0.22300000488758087 0
      vertex 0.19699999690055847 0.22300000488758087 0.004999999888241291
    endloop
  endfacet
  facet normal 0 0.9805806875228882 0.1961161345243454
    outer loop
      vertex 0.22599999606609344 0.2240000069141388 0
      vertex 0.19699999690055847 0.22300000488758087 0.004999999888241291
      vertex 0.22599999606609344 0.22300000488758087 0.004999999888241291
    endloop
  endfacet
  facet normal 0 0 1
    outer loop
      vertex 0.22599999606609344 0.22300000488758087 0.004999999888241291
      vertex 0.19699999690055847 0.22300000488758087 0.004999999888241291
      vertex 0.19699999690055847 0.19200000166893005 0.004999999888241291
    endloop
  endfacet
  facet normal 0 0 1
    outer loop
      vertex 0.22599999606609344 0.22300000488758087 0.004999999888241291
      vertex 0.19699999690055847 0.19200000166893005 0.004999999888241291
      vertex 0.22499999403953552 0.19099999964237213 0.004999999888241291
    endloop
  endfacet
  facet normal 0.9995757937431335 -0.028559308499097824 -0.0057118614204227924
    outer loop
      vertex 0.22499999403953552 0.1889999955892563 0
      vertex 0.22599999606609344 0.2240000069141388 0
      vertex 0.22599999606609344 0.22300000488758087 0.004999999888241291
    endloop
  endfacet
  facet normal 0.9994340538978577 -0.031232314184308052 0.012492925859987736
    outer loop
      vertex 0.22499999403953552 0.1889999955892563 0
      vertex 0.22599999606609344 0.22300000488758087 0.004999999888241291
      vertex 0.22499999403953552 0.19099999964237213 0.004999999888241291
    endloop
  endfacet
  facet normal -1 0 0
    outer loop
      vertex 0.19699999690055847 0.22300000488758087 0
      vertex 0.19699999690055847 0.19099999964237213 0
      vertex 0.19699999690055847 0.19200000166893005 0.004999999888241291
    endloop
  endfacet
  facet normal -1 0 0
    outer loop
      vertex 0.19699999690055847 0.22300000488758087 0
      vertex 0.19699999690055847 0.19200000166893005 0.004999999888241291
      vertex 0.19699999690055847 0.22300000488758087 0.004999999888241291
    endloop
  endfacet
  facet normal -1 0 0
    outer loop
      vertex 0.19699999690055847 0.22300000488758087 -0.004999999888241291
      vertex 0.19699999690055847 0.19200000166893005 -0.004999999888241291
      vertex 0.19699999690055847 0.19099999964237213 0
    endloop
  endfacet
  facet normal -1 0 0
    outer loop
      vertex 0.19699999690055847 0.22300000488758087 -0.004999999888241291
      vertex 0.19699999690055847 0.19099999964237213 0
      vertex 0.19699999690055847 0.22300000488758087 0
    endloop
  endfacet
  facet normal 0.9994925856590271 -0.031234143301844597 0.0062468284741044044
    outer loop
      vertex 0.22499999403953552 0.19099999964237213 -0.004999999888241291
      vertex 0.22599999606609344 0.22300000488758087 -0.004999999888241291
      vertex 0.22599999606609344 0.2240000069141388 0
    endloop
  endfacet
  facet normal 0.999526858329773 -0.02855790965259075 -0.011423164047300816
    outer loop
      vertex 0.22499999403953552 0.19099999964237213 -0.004999999888241291
      vertex 0.22599999606609344 0.2240000069141388 0
      vertex 0.22499999403953552 0.1889999955892563 0
    endloop
  endfacet
  facet normal 0 1 0
    outer loop
      vertex 0.22599999606609344 0.22300000488758087 -0.004999999888241291
      vertex 0.19699999690055847 0.22300000488758087 -0.004999999888241291
      vertex 0.19699999690055847 0.22300000488758087 0
    endloop
  endfacet
  facet normal -0.03379381448030472 0.9800205826759338 -0.19600412249565125
    outer loop
      vertex 0.22599999606609344 0.22300000488758087 -0.004999999888241291
      vertex 0.19699999690055847 0.22300000488758087 0
      vertex 0.22599999606609344 0.2240000069141388 0
    endloop
  endfacet
  facet normal -0.03499928116798401 -0.979979932308197 0.1959959864616394
    outer loop
      vertex 0.22499999403953552 0.19099999964237213 0.004999999888241291
      vertex 0.19699999690055847 0.19200000166893005 0.004999999888241291
      vertex 0.19699999690055847 0.19099999964237213 0
    endloop
  endfacet
  facet normal -0.06617439538240433 -0.9264415502548218 0.3705766201019287
    outer loop
      vertex 0.22499999403953552 0.19099999964237213 0.004999999888241291
      vertex 0.19699999690055847 0.19099999964237213 0
      vertex 0.22499999403953552 0.1889999955892563 0
    endloop
  endfacet
  facet normal -0.06528685241937637 -0.9466593265533447 -0.31555309891700745
    outer loop
      vertex 0.22499999403953552 0.1899999976158142 0
      vertex 0.19599999487400055 0.19200000166893005 0
      vertex 0.19599999487400055 0.19300000369548798 -0.003000000026077032
    endloop
  endfacet
  facet normal -0.06528685241937637 -0.9466593265533447 -0.31555309891700745
    outer loop
      vertex 0.22499999403953552 0.1899999976158142 0
      vertex 0.19599999487400055 0.19300000369548798 -0.003000000026077032
      vertex 0.22499999403953552 0.19099999964237213 -0.003000000026077032
    endloop
  endfacet
  facet normal 0 0 -1
    outer loop
      vertex 0.22499999403953552 0.19099999964237213 -0.003000000026077032
      vertex 0.19599999487400055 0.19300000369548798 -0.003000000026077032
      vertex 0.19599999487400055 0.20900000631809235 -0.003000000026077032
    endloop
  endfacet
  facet normal 0 0 -1
    outer loop
      vertex 0.22499999403953552 0.19099999964237213 -0.003000000026077032
      vertex 0.19599999487400055 0.20900000631809235 -0.003000000026077032
      vertex 0.22499999403953552 0.20999999344348907 -0.003000000026077032
    endloop
  endfacet
  facet normal 0 0.2095290869474411 0.9778023958206177
    outer loop
      vertex 0.22499999403953552 0.22300000488758087 0
      vertex 0.19599999487400055 0.22300000488758087 0
      vertex 0.19599999487400055 0.20900000631809235 0.003000000026077032
    endloop
  endfacet
  facet normal -0.0077535430900752544 0.22485274076461792 0.9743618965148926
    outer loop
      vertex 0.22499999403953552 0.22300000488758087 0
      vertex 0.19599999487400055 0.20900000631809235 0.003000000026077032
      vertex 0.22499999403953552 0.20999999344348907 0.003000000026077032
    endloop
  endfacet
  facet normal 0 0 1
    outer loop
      vertex 0.22499999403953552 0.20999999344348907 0.003000000026077032
      vertex 0.19599999487400055 0.20900000631809235 0.003000000026077032
      vertex 0.19599999487400055 0.19300000369548798 0.003000000026077032
    endloop
  endfacet
  facet normal 0 0 1
    outer loop
      vertex 0.22499999403953552 0.20999999344348907 0.003000000026077032
      vertex 0.19599999487400055 0.19300000369548798 0.003000000026077032
      vertex 0.22499999403953552 0.19099999964237213 0.003000000026077032
    endloop
  endfacet
  facet normal 1 0 0
    outer loop
      vertex 0.22499999403953552 0.1899999976158142 0
      vertex 0.22499999403953552 0.22300000488758087 0
      vertex 0.22499999403953552 0.20999999344348907 0.003000000026077032
    endloop
  endfacet
  facet normal 1 0 0
    outer loop
      vertex 0.22499999403953552 0.1899999976158142 0
      vertex 0.22499999403953552 0.20999999344348907 0.003000000026077032
      vertex 0.22499999403953552 0.19099999964237213 0.003000000026077032
    endloop
  endfacet
  facet normal 0 0 -1
    outer loop
      vertex 0.041999999433755875 0.21199999749660492 -0.003000000026077032
      vertex 0.0430000014603138 0.1979999989271164 -0.003000000026077032
      vertex -0.11100000143051147 0.19599999487400055 -0.003000000026077032
    endloop
  endfacet
  facet normal 0 0 -1
    outer loop
      vertex 0.041999999433755875 0.21199999749660492 -0.003000000026077032
      vertex -0.11100000143051147 0.19599999487400055 -0.003000000026077032
      vertex -0.1120000034570694 0.20900000631809235 -0.003000000026077032
    endloop
  endfacet
  facet normal -0.024498676881194115 0.26303842663764954 -0.9644742608070374
    outer loop
      vertex -0.1120000034570694 0.2199999988079071 0
      vertex -0.1120000034570694 0.20900000631809235 -0.003000000026077032
      vertex -0.24799999594688416 0.20000000298023224 -0.0020000000949949026
    endloop
  endfacet
  facet normal -0.017268339172005653 0.21506932377815247 -0.9764460921287537
    outer loop
      vertex -0.1120000034570694 0.2199999988079071 0
      vertex -0.24799999594688416 0.20000000298023224 -0.0020000000949949026
      vertex -0.24899999797344208 0.20900000631809235 0
    endloop
  endfacet
  facet normal -0.005125596188008785 0.26311394572257996 -0.964751124382019
    outer loop
      vertex 0.041999999433755875 0.22300000488758087 0
      vertex 0.041999999433755875 0.21199999749660492 -0.003000000026077032
      vertex -0.1120000034570694 0.20900000631809235 -0.003000000026077032
    endloop
  endfacet
  facet normal -0.005125596188008785 0.26311394572257996 -0.964751124382019
    outer loop
      vertex 0.041999999433755875 0.22300000488758087 0
      vertex -0.1120000034570694 0.20900000631809235 -0.003000000026077032
      vertex -0.1120000034570694 0.2199999988079071 0
    endloop
  endfacet
  facet normal 0.006681614089757204 -0.5144842863082886 0.8574737906455994
    outer loop
      vertex 0.0430000014603138 0.19300000369548798 0
      vertex 0.0430000014603138 0.1979999989271164 0.003000000026077032
      vertex -0.11100000143051147 0.19599999487400055 0.003000000026077032
    endloop
  endfacet
  facet normal 0.008711623027920723 -0.4471966326236725 0.894393265247345
    outer loop
      vertex 0.0430000014603138 0.19300000369548798 0
      vertex -0.11100000143051147 0.19599999487400055 0.003000000026077032
      vertex -0.11100000143051147 0.1899999976158142 0
    endloop
  endfacet
  facet normal 0 0 1
    outer loop
      vertex 0.0430000014603138 0.1979999989271164 0.003000000026077032
      vertex 0.041999999433755875 0.21199999749660492 0.003000000026077032
      vertex -0.1120000034570694 0.20900000631809235 0.003000000026077032
    endloop
  endfacet
  facet normal 0 0 1
    outer loop
      vertex 0.0430000014603138 0.1979999989271164 0.003000000026077032
      vertex -0.1120000034570694 0.20900000631809235 0.003000000026077032
      vertex -0.11100000143051147 0.19599999487400055 0.003000000026077032
    endloop
  endfacet
  facet normal 0 0 1
    outer loop
      vertex -0.24799999594688416 0.18700000643730164 0.0020000000949949026
      vertex -0.24799999594688416 0.20000000298023224 0.0020000000949949026
      vertex -0.382999986410141 0.1850000023841858 0.0020000000949949026
    endloop
  endfacet
  facet normal 0 0 1
    outer loop
      vertex -0.24799999594688416 0.18700000643730164 0.0020000000949949026
      vertex -0.382999986410141 0.1850000023841858 0.0020000000949949026
      vertex -0.38199999928474426 0.17299999296665192 0.0020000000949949026
    endloop
  endfacet
  facet normal 0.02284436672925949 -0.44709688425064087 0.8941937685012817
    outer loop
      vertex -0.11100000143051147 0.1899999976158142 0
      vertex -0.11100000143051147 0.19599999487400055 0.003000000026077032
      vertex -0.24799999594688416 0.18700000643730164 0.0020000000949949026
    endloop
  endfacet
  facet normal 0.020769605413079262 -0.31615954637527466 0.948478639125824
    outer loop
      vertex -0.11100000143051147 0.1899999976158142 0
      vertex -0.24799999594688416 0.18700000643730164 0.0020000000949949026
      vertex -0.24799999594688416 0.1809999942779541 0
    endloop
  endfacet
  facet normal -0.007315503899008036 -0.0005627310601994395 0.9999730587005615
    outer loop
      vertex -0.11100000143051147 0.19599999487400055 0.003000000026077032
      vertex -0.1120000034570694 0.20900000631809235 0.003000000026077032
      vertex -0.24799999594688416 0.20000000298023224 0.0020000000949949026
    endloop
  endfacet
  facet normal -0.007299075834453106 0 0.9999733567237854
    outer loop
      vertex -0.11100000143051147 0.19599999487400055 0.003000000026077032
      vertex -0.24799999594688416 0.20000000298023224 0.0020000000949949026
      vertex -0.24799999594688416 0.18700000643730164 0.0020000000949949026
    endloop
  endfacet
  facet normal -0.007262377068400383 -0.0005586444167420268 -0.999973475933075
    outer loop
      vertex -0.1120000034570694 0.20900000631809235 -0.003000000026077032
      vertex -0.11100000143051147 0.19599999487400055 -0.003000000026077032
      vertex -0.24799999594688416 0.18700000643730164 -0.0020000000949949026
    endloop
  endfacet
  facet normal -0.007352742366492748 0 -0.999972939491272
    outer loop
      vertex -0.1120000034570694 0.20900000631809235 -0.003000000026077032
      vertex -0.24799999594688416 0.18700000643730164 -0.0020000000949949026
      vertex -0.24799999594688416 0.20000000298023224 -0.0020000000949949026
    endloop
  endfacet
  facet normal -0.019365862011909485 0.19607935845851898 -0.9803968071937561
    outer loop
      vertex -0.382999986410141 0.19499999284744263 0
      vertex -0.382999986410141 0.1850000023841858 -0.0020000000949949026
      vertex -0.46399998664855957 0.1770000010728836 -0.0020000000949949026
    endloop
  endfacet
  facet normal -0.027326157316565514 0.23103022575378418 -0.9725627303123474
    outer loop
      vertex -0.382999986410141 0.19499999284744263 0
      vertex -0.46399998664855957 0.1770000010728836 -0.0020000000949949026
      vertex -0.47600001096725464 0.18400000035762787 0
    endloop
  endfacet
  facet normal 0 0 -1
    outer loop
      vertex -0.24799999594688416 0.20000000298023224 -0.0020000000949949026
      vertex -0.24799999594688416 0.18700000643730164 -0.0020000000949949026
      vertex -0.38199999928474426 0.17299999296665192 -0.0020000000949949026
    endloop
  endfacet
  facet normal 0 0 -1
    outer loop
      vertex -0.24799999594688416 0.20000000298023224 -0.0020000000949949026
      vertex -0.38199999928474426 0.17299999296665192 -0.0020000000949949026
      vertex -0.382999986410141 0.1850000023841858 -0.0020000000949949026
    endloop
  endfacet
  facet normal -0.023816276341676712 0.2143464833498001 -0.9764673113822937
    outer loop
      vertex -0.24899999797344208 0.20900000631809235 0
      vertex -0.24799999594688416 0.20000000298023224 -0.0020000000949949026
      vertex -0.382999986410141 0.1850000023841858 -0.0020000000949949026
    endloop
  endfacet
  facet normal -0.020485445857048035 0.196074977517128 -0.9803748726844788
    outer loop
      vertex -0.24899999797344208 0.20900000631809235 0
      vertex -0.382999986410141 0.1850000023841858 -0.0020000000949949026
      vertex -0.382999986410141 0.19499999284744263 0
    endloop
  endfacet
  facet normal 0.03302070498466492 -0.3160553276538849 0.9481659531593323
    outer loop
      vertex -0.24799999594688416 0.1809999942779541 0
      vertex -0.24799999594688416 0.18700000643730164 0.0020000000949949026
      vertex -0.38199999928474426 0.17299999296665192 0.0020000000949949026
    endloop
  endfacet
  facet normal 0.036007072776556015 -0.37114983797073364 0.9278746247291565
    outer loop
      vertex -0.24799999594688416 0.1809999942779541 0
      vertex -0.38199999928474426 0.17299999296665192 0.0020000000949949026
      vertex -0.38199999928474426 0.1679999977350235 0
    endloop
  endfacet
  facet normal -0.09354311972856522 0.08980139344930649 0.9915570616722107
    outer loop
      vertex -0.47600001096725464 0.18400000035762787 0
      vertex -0.5 0.1589999943971634 0
      vertex -0.4740000069141388 0.164000004529953 0.0020000000949949026
    endloop
  endfacet
  facet normal -0.11385126411914825 0.08757789433002472 0.9896302223205566
    outer loop
      vertex -0.47600001096725464 0.18400000035762787 0
      vertex -0.4740000069141388 0.164000004529953 0.0020000000949949026
      vertex -0.46399998664855957 0.1770000010728836 0.0020000000949949026
    endloop
  endfacet
  facet normal 0.036307740956544876 -0.3711458146572113 0.9278644919395447
    outer loop
      vertex -0.38199999928474426 0.1679999977350235 0
      vertex -0.38199999928474426 0.17299999296665192 0.0020000000949949026
      vertex -0.4740000069141388 0.164000004529953 0.0020000000949949026
    endloop
  endfacet
  facet normal 0.0421052910387516 -0.5520471334457397 0.8327491283416748
    outer loop
      vertex -0.38199999928474426 0.1679999977350235 0
      vertex -0.4740000069141388 0.164000004529953 0.0020000000949949026
      vertex -0.5 0.1589999943971634 0
    endloop
  endfacet
  facet normal 0 0 1
    outer loop
      vertex -0.38199999928474426 0.17299999296665192 0.0020000000949949026
      vertex -0.382999986410141 0.1850000023841858 0.0020000000949949026
      vertex -0.46399998664855957 0.1770000010728836 0.0020000000949949026
    endloop
  endfacet
  facet normal 0 0 1
    outer loop
      vertex -0.38199999928474426 0.17299999296665192 0.0020000000949949026
      vertex -0.46399998664855957 0.1770000010728836 0.0020000000949949026
      vertex -0.4740000069141388 0.164000004529953 0.0020000000949949026
    endloop
  endfacet
  facet normal 0 0 -1
    outer loop
      vertex -0.382999986410141 0.1850000023841858 -0.0020000000949949026
      vertex -0.38199999928474426 0.17299999296665192 -0.0020000000949949026
      vertex -0.4740000069141388 0.164000004529953 -0.0020000000949949026
    endloop
  endfacet
  facet normal 0 0 -1
    outer loop
      vertex -0.382999986410141 0.1850000023841858 -0.0020000000949949026
      vertex -0.4740000069141388 0.164000004529953 -0.0020000000949949026
      vertex -0.46399998664855957 0.1770000010728836 -0.0020000000949949026
    endloop
  endfacet
  facet normal 0.028315050527453423 -0.3712417781352997 -0.9281044006347656
    outer loop
      vertex -0.38199999928474426 0.17299999296665192 -0.0020000000949949026
      vertex -0.38199999928474426 0.1679999977350235 0
      vertex -0.5 0.1589999943971634 0
    endloop
  endfacet
  facet normal 0.0616467259824276 -0.6301665306091309 -0.7740089297294617
    outer loop
      vertex -0.38199999928474426 0.17299999296665192 -0.0020000000949949026
      vertex -0.5 0.1589999943971634 0
      vertex -0.4740000069141388 0.164000004529953 -0.0020000000949949026
    endloop
  endfacet
  facet normal -0.08969784528017044 0.06899834424257278 -0.9935761094093323
    outer loop
      vertex -0.46399998664855957 0.1770000010728836 -0.0020000000949949026
      vertex -0.4740000069141388 0.164000004529953 -0.0020000000949949026
      vertex -0.5 0.1589999943971634 0
    endloop
  endfacet
  facet normal -0.10568486154079437 0.10145746916532516 -0.989210307598114
    outer loop
      vertex -0.46399998664855957 0.1770000010728836 -0.0020000000949949026
      vertex -0.5 0.1589999943971634 0
      vertex -0.47600001096725464 0.18400000035762787 0
    endloop
  endfacet
  facet normal 0.030664386227726936 -0.3160790503025055 -0.9482371807098389
    outer loop
      vertex -0.24799999594688416 0.18700000643730164 -0.0020000000949949026
      vertex -0.24799999594688416 0.1809999942779541 0
      vertex -0.38199999928474426 0.1679999977350235 0
    endloop
  endfacet
  facet normal 0.0387728326022625 -0.3711114227771759 -0.9277785420417786
    outer loop
      vertex -0.24799999594688416 0.18700000643730164 -0.0020000000949949026
      vertex -0.38199999928474426 0.1679999977350235 0
      vertex -0.38199999928474426 0.17299999296665192 -0.0020000000949949026
    endloop
  endfacet
  facet normal -0.02241070196032524 0.21450243890285492 0.9764662981033325
    outer loop
      vertex -0.24799999594688416 0.20000000298023224 0.0020000000949949026
      vertex -0.24899999797344208 0.20900000631809235 0
      vertex -0.382999986410141 0.19499999284744263 0
    endloop
  endfacet
  facet normal -0.021785510703921318 0.19606958329677582 0.9803479313850403
    outer loop
      vertex -0.24799999594688416 0.20000000298023224 0.0020000000949949026
      vertex -0.382999986410141 0.19499999284744263 0
      vertex -0.382999986410141 0.1850000023841858 0.0020000000949949026
    endloop
  endfacet
  facet normal -0.023190293461084366 0.19606339931488037 0.9803169965744019
    outer loop
      vertex -0.382999986410141 0.1850000023841858 0.0020000000949949026
      vertex -0.382999986410141 0.19499999284744263 0
      vertex -0.47600001096725464 0.18400000035762787 0
    endloop
  endfacet
  facet normal -0.023436615243554115 0.2372957170009613 0.9711546897888184
    outer loop
      vertex -0.382999986410141 0.1850000023841858 0.0020000000949949026
      vertex -0.47600001096725464 0.18400000035762787 0
      vertex -0.46399998664855957 0.1770000010728836 0.0020000000949949026
    endloop
  endfacet
  facet normal 0.029366323724389076 -0.4470207095146179 -0.8940414190292358
    outer loop
      vertex -0.11100000143051147 0.19599999487400055 -0.003000000026077032
      vertex -0.11100000143051147 0.1899999976158142 0
      vertex -0.24799999594688416 0.1809999942779541 0
    endloop
  endfacet
  facet normal 0.01384806353598833 -0.3161974549293518 -0.9485923051834106
    outer loop
      vertex -0.11100000143051147 0.19599999487400055 -0.003000000026077032
      vertex -0.24799999594688416 0.1809999942779541 0
      vertex -0.24799999594688416 0.18700000643730164 -0.0020000000949949026
    endloop
  endfacet
  facet normal 0.01002214103937149 -0.5144699215888977 -0.8574498891830444
    outer loop
      vertex 0.0430000014603138 0.1979999989271164 -0.003000000026077032
      vertex 0.0430000014603138 0.19300000369548798 0
      vertex -0.11100000143051147 0.1899999976158142 0
    endloop
  endfacet
  facet normal 0.005807870998978615 -0.447206050157547 -0.894412100315094
    outer loop
      vertex 0.0430000014603138 0.1979999989271164 -0.003000000026077032
      vertex -0.11100000143051147 0.1899999976158142 0
      vertex -0.11100000143051147 0.19599999487400055 -0.003000000026077032
    endloop
  endfacet
  facet normal -0.005125596188008785 0.26311394572257996 0.964751124382019
    outer loop
      vertex 0.041999999433755875 0.21199999749660492 0.003000000026077032
      vertex 0.041999999433755875 0.22300000488758087 0
      vertex -0.1120000034570694 0.2199999988079071 0
    endloop
  endfacet
  facet normal -0.005125596188008785 0.26311394572257996 0.964751124382019
    outer loop
      vertex 0.041999999433755875 0.21199999749660492 0.003000000026077032
      vertex -0.1120000034570694 0.2199999988079071 0
      vertex -0.1120000034570694 0.20900000631809235 0.003000000026077032
    endloop
  endfacet
  facet normal -0.021121501922607422 0.26305872201919556 0.9645485877990723
    outer loop
      vertex -0.1120000034570694 0.20900000631809235 0.003000000026077032
      vertex -0.1120000034570694 0.2199999988079071 0
      vertex -0.24899999797344208 0.20900000631809235 0
    endloop
  endfacet
  facet normal -0.02138243056833744 0.21461625397205353 0.9764643907546997
    outer loop
      vertex -0.1120000034570694 0.20900000631809235 0.003000000026077032
      vertex -0.24899999797344208 0.20900000631809235 0
      vertex -0.24799999594688416 0.20000000298023224 0.0020000000949949026
    endloop
  endfacet
  facet normal 1 0 0
    outer loop
      vertex 0.22499999403953552 0.19099999964237213 -0.003000000026077032
      vertex 0.22499999403953552 0.20999999344348907 -0.003000000026077032
      vertex 0.22499999403953552 0.22300000488758087 0
    endloop
  endfacet
  facet normal 1 0 0
    outer loop
      vertex 0.22499999403953552 0.19099999964237213 -0.003000000026077032
      vertex 0.22499999403953552 0.22300000488758087 0
      vertex 0.22499999403953552 0.1899999976158142 0
    endloop
  endfacet
  facet normal -0.007224952336400747 0.20952361822128296 -0.9777768850326538
    outer loop
      vertex 0.22499999403953552 0.20999999344348907 -0.003000000026077032
      vertex 0.19599999487400055 0.20900000631809235 -0.003000000026077032
      vertex 0.19599999487400055 0.22300000488758087 0
    endloop
  endfacet
  facet normal 0 0.22485950589179993 -0.9743912220001221
    outer loop
      vertex 0.22499999403953552 0.20999999344348907 -0.003000000026077032
      vertex 0.19599999487400055 0.22300000488758087 0
      vertex 0.22499999403953552 0.22300000488758087 0
    endloop
  endfacet
  facet normal -0.06528685241937637 -0.9466593265533447 0.31555309891700745
    outer loop
      vertex 0.22499999403953552 0.19099999964237213 0.003000000026077032
      vertex 0.19599999487400055 0.19300000369548798 0.003000000026077032
      vertex 0.19599999487400055 0.19200000166893005 0
    endloop
  endfacet
  facet normal -0.06528685241937637 -0.9466593265533447 0.31555309891700745
    outer loop
      vertex 0.22499999403953552 0.19099999964237213 0.003000000026077032
      vertex 0.19599999487400055 0.19200000166893005 0
      vertex 0.22499999403953552 0.1899999976158142 0
    endloop
  endfacet
  facet normal 0 0.2095290869474411 0.9778023958206177
    outer loop
      vertex 0.19599999487400055 0.20900000631809235 0.003000000026077032
      vertex 0.19599999487400055 0.22300000488758087 0
      vertex 0.041999999433755875 0.22300000488758087 0
    endloop
  endfacet
  facet normal 0.005125596188008785 0.26311394572257996 0.964751124382019
    outer loop
      vertex 0.19599999487400055 0.20900000631809235 0.003000000026077032
      vertex 0.041999999433755875 0.22300000488758087 0
      vertex 0.041999999433755875 0.21199999749660492 0.003000000026077032
    endloop
  endfacet
  facet normal -0.006200425326824188 -0.9486650824546814 -0.316221684217453
    outer loop
      vertex 0.19599999487400055 0.19300000369548798 -0.003000000026077032
      vertex 0.19599999487400055 0.19200000166893005 0
      vertex 0.0430000014603138 0.19300000369548798 0
    endloop
  endfacet
  facet normal -0.01681121066212654 -0.5144230723381042 -0.8573717474937439
    outer loop
      vertex 0.19599999487400055 0.19300000369548798 -0.003000000026077032
      vertex 0.0430000014603138 0.19300000369548798 0
      vertex 0.0430000014603138 0.1979999989271164 -0.003000000026077032
    endloop
  endfacet
  facet normal 0 0 1
    outer loop
      vertex 0.19599999487400055 0.19300000369548798 0.003000000026077032
      vertex 0.19599999487400055 0.20900000631809235 0.003000000026077032
      vertex 0.041999999433755875 0.21199999749660492 0.003000000026077032
    endloop
  endfacet
  facet normal 0 0 1
    outer loop
      vertex 0.19599999487400055 0.19300000369548798 0.003000000026077032
      vertex 0.041999999433755875 0.21199999749660492 0.003000000026077032
      vertex 0.0430000014603138 0.1979999989271164 0.003000000026077032
    endloop
  endfacet
  facet normal -0.030987832695245743 -0.9482277035713196 0.3160758912563324
    outer loop
      vertex 0.19599999487400055 0.19200000166893005 0
      vertex 0.19599999487400055 0.19300000369548798 0.003000000026077032
      vertex 0.0430000014603138 0.1979999989271164 0.003000000026077032
    endloop
  endfacet
  facet normal -0.003362698247656226 -0.5144928693771362 0.8574880957603455
    outer loop
      vertex 0.19599999487400055 0.19200000166893005 0
      vertex 0.0430000014603138 0.1979999989271164 0.003000000026077032
      vertex 0.0430000014603138 0.19300000369548798 0
    endloop
  endfacet
  facet normal 0.004081701394170523 0.20952734351158142 -0.9777942895889282
    outer loop
      vertex 0.19599999487400055 0.22300000488758087 0
      vertex 0.19599999487400055 0.20900000631809235 -0.003000000026077032
      vertex 0.041999999433755875 0.21199999749660492 -0.003000000026077032
    endloop
  endfacet
  facet normal 0 0.26311740279197693 -0.9647638201713562
    outer loop
      vertex 0.19599999487400055 0.22300000488758087 0
      vertex 0.041999999433755875 0.21199999749660492 -0.003000000026077032
      vertex 0.041999999433755875 0.22300000488758087 0
    endloop
  endfacet
  facet normal 0 0 -1
    outer loop
      vertex 0.19599999487400055 0.20900000631809235 -0.003000000026077032
      vertex 0.19599999487400055 0.19300000369548798 -0.003000000026077032
      vertex 0.0430000014603138 0.1979999989271164 -0.003000000026077032
    endloop
  endfacet
  facet normal 0 0 -1
    outer loop
      vertex 0.19599999487400055 0.20900000631809235 -0.003000000026077032
      vertex 0.0430000014603138 0.1979999989271164 -0.003000000026077032
      vertex 0.041999999433755875 0.21199999749660492 -0.003000000026077032
    endloop
  endfacet
  facet normal 0 0.33440983295440674 -0.9424277544021606
    outer loop
      vertex 0.23100000619888306 0.20800000429153442 -0.03700000047683716
      vertex 0.22499999403953552 0.20800000429153442 -0.03700000047683716
      vertex 0.22699999809265137 0.23899999260902405 -0.026000000536441803
    endloop
  endfacet
  facet normal 0 0.33440983295440674 -0.9424277544021606
    outer loop
      vertex 0.23100000619888306 0.20800000429153442 -0.03700000047683716
      vertex 0.22699999809265137 0.23899999260902405 -0.026000000536441803
      vertex 0.23199999332427979 0.23899999260902405 -0.026000000536441803
    endloop
  endfacet
  facet normal 0 0.8944271802902222 -0.4472135901451111
    outer loop
      vertex 0.23199999332427979 0.23899999260902405 -0.026000000536441803
      vertex 0.22699999809265137 0.23899999260902405 -0.026000000536441803
      vertex 0.22699999809265137 0.25200000405311584 0
    endloop
  endfacet
  facet normal 0 0.8944271802902222 -0.4472135901451111
    outer loop
      vertex 0.23199999332427979 0.23899999260902405 -0.026000000536441803
      vertex 0.22699999809265137 0.25200000405311584 0
      vertex 0.2329999953508377 0.25200000405311584 0
    endloop
  endfacet
  facet normal 0 0.8944271802902222 0.4472135901451111
    outer loop
      vertex 0.2329999953508377 0.25200000405311584 0
      vertex 0.22699999809265137 0.25200000405311584 0
      vertex 0.22699999809265137 0.23899999260902405 0.026000000536441803
    endloop
  endfacet
  facet normal 0 0.8944271802902222 0.4472135901451111
    outer loop
      vertex 0.2329999953508377 0.25200000405311584 0
      vertex 0.22699999809265137 0.23899999260902405 0.026000000536441803
      vertex 0.23199999332427979 0.23899999260902405 0.026000000536441803
    endloop
  endfacet
  facet normal 0 0.33440983295440674 0.9424277544021606
    outer loop
      vertex 0.23199999332427979 0.23899999260902405 0.026000000536441803
      vertex 0.22699999809265137 0.23899999260902405 0.026000000536441803
      vertex 0.22499999403953552 0.20800000429153442 0.03700000047683716
    endloop
  endfacet
  facet normal 0 0.33440983295440674 0.9424277544021606
    outer loop
      vertex 0.23199999332427979 0.23899999260902405 0.026000000536441803
      vertex 0.22499999403953552 0.20800000429153442 0.03700000047683716
      vertex 0.23100000619888306 0.20800000429153442 0.03700000047683716
    endloop
  endfacet
  facet normal 0 -0.33440983295440674 0.9424277544021606
    outer loop
      vertex 0.23100000619888306 0.20800000429153442 0.03700000047683716
      vertex 0.22499999403953552 0.20800000429153442 0.03700000047683716
      vertex 0.2240000069141388 0.1770000010728836 0.026000000536441803
    endloop
  endfacet
  facet normal 0 -0.33440983295440674 0.9424277544021606
    outer loop
      vertex 0.23100000619888306 0.20800000429153442 0.03700000047683716
      vertex 0.2240000069141388 0.1770000010728836 0.026000000536441803
      vertex 0.23000000417232513 0.1770000010728836 0.026000000536441803
    endloop
  endfacet
  facet normal 0 -0.8944271802902222 0.4472135901451111
    outer loop
      vertex 0.23000000417232513 0.1770000010728836 0.026000000536441803
      vertex 0.2240000069141388 0.1770000010728836 0.026000000536441803
      vertex 0.22300000488758087 0.164000004529953 0
    endloop
  endfacet
  facet normal 0 -0.8944271802902222 0.4472135901451111
    outer loop
      vertex 0.23000000417232513 0.1770000010728836 0.026000000536441803
      vertex 0.22300000488758087 0.164000004529953 0
      vertex 0.2290000021457672 0.164000004529953 0
    endloop
  endfacet
  facet normal 0 -0.8944271802902222 -0.4472135901451111
    outer loop
      vertex 0.2290000021457672 0.164000004529953 0
      vertex 0.22300000488758087 0.164000004529953 0
      vertex 0.2240000069141388 0.1770000010728836 -0.026000000536441803
    endloop
  endfacet
  facet normal 0 -0.8944271802902222 -0.4472135901451111
    outer loop
      vertex 0.2290000021457672 0.164000004529953 0
      vertex 0.2240000069141388 0.1770000010728836 -0.026000000536441803
      vertex 0.23000000417232513 0.1770000010728836 -0.026000000536441803
    endloop
  endfacet
  facet normal 0 -0.33440983295440674 -0.9424277544021606
    outer loop
      vertex 0.23000000417232513 0.1770000010728836 -0.026000000536441803
      vertex 0.2240000069141388 0.1770000010728836 -0.026000000536441803
      vertex 0.22499999403953552 0.20800000429153442 -0.03700000047683716
    endloop
  endfacet
  facet normal 0 -0.33440983295440674 -0.9424277544021606
    outer loop
      vertex 0.23000000417232513 0.1770000010728836 -0.026000000536441803
      vertex 0.22499999403953552 0.20800000429153442 -0.03700000047683716
      vertex 0.23100000619888306 0.20800000429153442 -0.03700000047683716
    endloop
  endfacet
  facet normal -0.9970544576644897 0.0766965001821518 0
    outer loop
      vertex 0.2240000069141388 0.1770000010728836 0.026000000536441803
      vertex 0.2240000069141388 0.1770000010728836 -0.026000000536441803
      vertex 0.22300000488758087 0.164000004529953 0
    endloop
  endfacet
  facet normal -0.999480128288269 0.03224129229784012 0
    outer loop
      vertex 0.2240000069141388 0.1770000010728836 -0.026000000536441803
      vertex 0.2240000069141388 0.1770000010728836 0.026000000536441803
      vertex 0.22499999403953552 0.20800000429153442 -0.03700000047683716
    endloop
  endfacet
  facet normal -0.999480128288269 0.03224129229784012 0
    outer loop
      vertex 0.22499999403953552 0.20800000429153442 -0.03700000047683716
      vertex 0.2240000069141388 0.1770000010728836 0.026000000536441803
      vertex 0.22499999403953552 0.20800000429153442 0.03700000047683716
    endloop
  endfacet
  facet normal -0.9979252815246582 0.06438227742910385 0
    outer loop
      vertex 0.22499999403953552 0.20800000429153442 -0.03700000047683716
      vertex 0.22499999403953552 0.20800000429153442 0.03700000047683716
      vertex 0.22699999809265137 0.23899999260902405 0.026000000536441803
    endloop
  endfacet
  facet normal -0.9979252815246582 0.06438227742910385 0
    outer loop
      vertex 0.22499999403953552 0.20800000429153442 -0.03700000047683716
      vertex 0.22699999809265137 0.23899999260902405 0.026000000536441803
      vertex 0.22699999809265137 0.23899999260902405 -0.026000000536441803
    endloop
  endfacet
  facet normal -1 0 0
    outer loop
      vertex 0.22699999809265137 0.23899999260902405 -0.026000000536441803
      vertex 0.22699999809265137 0.23899999260902405 0.026000000536441803
      vertex 0.22699999809265137 0.25200000405311584 0
    endloop
  endfacet
  facet normal 0.9970544576644897 -0.0766965001821518 0
    outer loop
      vertex 0.23000000417232513 0.1770000010728836 -0.026000000536441803
      vertex 0.23000000417232513 0.1770000010728836 0.026000000536441803
      vertex 0.2290000021457672 0.164000004529953 0
    endloop
  endfacet
  facet normal 0.999480128288269 -0.03224129229784012 0
    outer loop
      vertex 0.23000000417232513 0.1770000010728836 0.026000000536441803
      vertex 0.23000000417232513 0.1770000010728836 -0.026000000536441803
      vertex 0.23100000619888306 0.20800000429153442 -0.03700000047683716
    endloop
  endfacet
  facet normal 0.999480128288269 -0.03224129229784012 0
    outer loop
      vertex 0.23000000417232513 0.1770000010728836 0.026000000536441803
      vertex 0.23100000619888306 0.20800000429153442 -0.03700000047683716
      vertex 0.23100000619888306 0.20800000429153442 0.03700000047683716
    endloop
  endfacet
  facet normal 0.999480128288269 -0.03224129229784012 0
    outer loop
      vertex 0.23100000619888306 0.20800000429153442 0.03700000047683716
      vertex 0.23100000619888306 0.20800000429153442 -0.03700000047683716
      vertex 0.23199999332427979 0.23899999260902405 0.026000000536441803
    endloop
  endfacet
  facet normal 0.999480128288269 -0.03224129229784012 0
    outer loop
      vertex 0.23199999332427979 0.23899999260902405 0.026000000536441803
      vertex 0.23100000619888306 0.20800000429153442 -0.03700000047683716
      vertex 0.23199999332427979 0.23899999260902405 -0.026000000536441803
    endloop
  endfacet
  facet normal 0.9970544576644897 -0.0766965001821518 0
    outer loop
      vertex 0.23199999332427979 0.23899999260902405 0.026000000536441803
      vertex 0.23199999332427979 0.23899999260902405 -0.026000000536441803
      vertex 0.2329999953508377 0.25200000405311584 0
    endloop
  endfacet
endsolid blade
