solid scabbard
  facet normal -0.05397525802254677 -0.9985422492027283 0
    outer loop
      vertex 0.2290000021457672 0.0430000014603138 0.004000000189989805
      vertex 0.19200000166893005 0.04500000178813934 0.004000000189989805
      vertex 0.19200000166893005 0.04500000178813934 -0.004000000189989805
    endloop
  endfacet
  facet normal -0.05397525802254677 -0.9985422492027283 0
    outer loop
      vertex 0.2290000021457672 0.0430000014603138 0.004000000189989805
      vertex 0.19200000166893005 0.04500000178813934 -0.004000000189989805
      vertex 0.2290000021457672 0.0430000014603138 -0.004000000189989805
    endloop
  endfacet
  facet normal 0.012795677408576012 0.24311786890029907 -0.9699123501777649
    outer loop
      vertex 0.23000000417232513 0.06300000101327896 -0.008999999612569809
      vertex 0.19200000166893005 0.06499999761581421 -0.008999999612569809
      vertex 0.19099999964237213 0.08500000089406967 -0.004000000189989805
    endloop
  endfacet
  facet normal 0.005938882939517498 0.23161643743515015 -0.9727890491485596
    outer loop
      vertex 0.23000000417232513 0.06300000101327896 -0.008999999612569809
      vertex 0.19099999964237213 0.08500000089406967 -0.004000000189989805
      vertex 0.23000000417232513 0.08399999886751175 -0.004000000189989805
    endloop
  endfacet
  facet normal 0.025632601231336594 0.999671459197998 0
    outer loop
      vertex 0.23000000417232513 0.08399999886751175 -0.004000000189989805
      vertex 0.19099999964237213 0.08500000089406967 -0.004000000189989805
      vertex 0.19099999964237213 0.08500000089406967 0.004000000189989805
    endloop
  endfacet
  facet normal 0.025632601231336594 0.999671459197998 0
    outer loop
      vertex 0.23000000417232513 0.08399999886751175 -0.004000000189989805
      vertex 0.19099999964237213 0.08500000089406967 0.004000000189989805
      vertex 0.23000000417232513 0.08399999886751175 0.004000000189989805
    endloop
  endfacet
  facet normal -0.012763992883265018 -0.24251586198806763 0.9700634479522705
    outer loop
      vertex 0.23000000417232513 0.06300000101327896 0.008999999612569809
      vertex 0.19200000166893005 0.06499999761581421 0.008999999612569809
      vertex 0.19200000166893005 0.04500000178813934 0.004000000189989805
    endloop
  endfacet
  facet normal -0.013075649738311768 -0.2418995201587677 0.9702131748199463
    outer loop
      vertex 0.23000000417232513 0.06300000101327896 0.008999999612569809
      vertex 0.19200000166893005 0.04500000178813934 0.004000000189989805
      vertex 0.2290000021457672 0.0430000014603138 0.004000000189989805
    endloop
  endfacet
  facet normal 1 0 0
    outer loop
      vertex 0.23000000417232513 0.06300000101327896 -0.008999999612569809
      vertex 0.23000000417232513 0.08399999886751175 -0.004000000189989805
      vertex 0.23000000417232513 0.08399999886751175 0.004000000189989805
    endloop
  endfacet
  facet normal 1 0 0
    outer loop
      vertex 0.23000000417232513 0.06300000101327896 -0.008999999612569809
      vertex 0.23000000417232513 0.08399999886751175 0.004000000189989805
      vertex 0.23000000417232513 0.06300000101327896 0.008999999612569809
    endloop
  endfacet
  facet normal 0.0013253301149234176 -0.24253541231155396 -0.9701416492462158
    outer loop
      vertex 0.19200000166893005 0.06499999761581421 -0.008999999612569809
      vertex 0.19200000166893005 0.04500000178813934 -0.004000000189989805
      vertex 0.008999999612569809 0.04399999976158142 -0.004000000189989805
    endloop
  endfacet
  facet normal -0.0012110434472560883 -0.22162094712257385 -0.975132167339325
    outer loop
      vertex 0.19200000166893005 0.06499999761581421 -0.008999999612569809
      vertex 0.008999999612569809 0.04399999976158142 -0.004000000189989805
      vertex 0.008999999612569809 0.06599999964237213 -0.008999999612569809
    endloop
  endfacet
  facet normal -0.05577894672751427 0.9984431266784668 0
    outer loop
      vertex 0.00800000037997961 0.0860000029206276 0.004000000189989805
      vertex 0.00800000037997961 0.0860000029206276 -0.004000000189989805
      vertex -0.17100000381469727 0.07599999755620956 -0.004000000189989805
    endloop
  endfacet
  facet normal -0.05577894672751427 0.9984431266784668 0
    outer loop
      vertex 0.00800000037997961 0.0860000029206276 0.004000000189989805
      vertex -0.17100000381469727 0.07599999755620956 -0.004000000189989805
      vertex -0.17100000381469727 0.07599999755620956 0.004000000189989805
    endloop
  endfacet
  facet normal 0.005464399233460426 0.9999850988388062 0
    outer loop
      vertex 0.19099999964237213 0.08500000089406967 0.004000000189989805
      vertex 0.19099999964237213 0.08500000089406967 -0.004000000189989805
      vertex 0.00800000037997961 0.0860000029206276 -0.004000000189989805
    endloop
  endfacet
  facet normal 0.005464399233460426 0.9999850988388062 0
    outer loop
      vertex 0.19099999964237213 0.08500000089406967 0.004000000189989805
      vertex 0.00800000037997961 0.0860000029206276 -0.004000000189989805
      vertex 0.00800000037997961 0.0860000029206276 0.004000000189989805
    endloop
  endfacet
  facet normal 0.005464399233460426 -0.9999850988388062 0
    outer loop
      vertex 0.19200000166893005 0.04500000178813934 -0.004000000189989805
      vertex 0.19200000166893005 0.04500000178813934 0.004000000189989805
      vertex 0.008999999612569809 0.04399999976158142 0.004000000189989805
    endloop
  endfacet
  facet normal 0.005464399233460426 -0.9999850988388062 0
    outer loop
      vertex 0.19200000166893005 0.04500000178813934 -0.004000000189989805
      vertex 0.008999999612569809 0.04399999976158142 0.004000000189989805
      vertex 0.008999999612569809 0.04399999976158142 -0.004000000189989805
    endloop
  endfacet
  facet normal 0.0013256709789857268 0.2425977885723114 0.9701260328292847
    outer loop
      vertex 0.19200000166893005 0.06499999761581421 0.008999999612569809
      vertex 0.19099999964237213 0.08500000089406967 0.004000000189989805
      vertex 0.00800000037997961 0.0860000029206276 0.004000000189989805
    endloop
  endfacet
  facet normal 0.0013256709789857268 0.2425977885723114 0.9701260328292847
    outer loop
      vertex 0.19200000166893005 0.06499999761581421 0.008999999612569809
      vertex 0.00800000037997961 0.0860000029206276 0.004000000189989805
      vertex 0.008999999612569809 0.06599999964237213 0.008999999612569809
    endloop
  endfacet
  facet normal -0.023580625653266907 0.25442254543304443 0.966805636882782
    outer loop
      vertex -0.17100000381469727 0.05700000002980232 0.008999999612569809
      vertex -0.17100000381469727 0.07599999755620956 0.004000000189989805
      vertex -0.37599998712539673 0.05700000002980232 0.004000000189989805
    endloop
  endfacet
  facet normal -0.023909764364361763 0.19606007635593414 0.9803003668785095
    outer loop
      vertex -0.17100000381469727 0.05700000002980232 0.008999999612569809
      vertex -0.37599998712539673 0.05700000002980232 0.004000000189989805
      vertex -0.37599998712539673 0.03700000047683716 0.00800000037997961
    endloop
  endfacet
  facet normal 0.049937617033720016 -0.9987523555755615 0
    outer loop
      vertex 0.008999999612569809 0.04399999976158142 -0.004000000189989805
      vertex 0.008999999612569809 0.04399999976158142 0.004000000189989805
      vertex -0.17100000381469727 0.03500000014901161 0.004000000189989805
    endloop
  endfacet
  facet normal 0.031195782124996185 -0.9358734488487244 -0.35095253586769104
    outer loop
      vertex 0.008999999612569809 0.04399999976158142 -0.004000000189989805
      vertex -0.17100000381469727 0.03500000014901161 0.004000000189989805
      vertex -0.17100000381469727 0.03799999877810478 -0.004000000189989805
    endloop
  endfacet
  facet normal -0.013512711971998215 0.24187754094600677 0.9702126979827881
    outer loop
      vertex 0.008999999612569809 0.06599999964237213 0.008999999612569809
      vertex 0.00800000037997961 0.0860000029206276 0.004000000189989805
      vertex -0.17100000381469727 0.07599999755620956 0.004000000189989805
    endloop
  endfacet
  facet normal -0.012723634950816631 0.2544727027416229 0.9669962525367737
    outer loop
      vertex 0.008999999612569809 0.06599999964237213 0.008999999612569809
      vertex -0.17100000381469727 0.07599999755620956 0.004000000189989805
      vertex -0.17100000381469727 0.05700000002980232 0.008999999612569809
    endloop
  endfacet
  facet normal 0.007387168705463409 -0.22161506116390228 -0.9751062393188477
    outer loop
      vertex 0.008999999612569809 0.06599999964237213 -0.008999999612569809
      vertex 0.008999999612569809 0.04399999976158142 -0.004000000189989805
      vertex -0.17100000381469727 0.03799999877810478 -0.004000000189989805
    endloop
  endfacet
  facet normal 0.012723634950816631 -0.2544727027416229 -0.9669962525367737
    outer loop
      vertex 0.008999999612569809 0.06599999964237213 -0.008999999612569809
      vertex -0.17100000381469727 0.03799999877810478 -0.004000000189989805
      vertex -0.17100000381469727 0.05700000002980232 -0.008999999612569809
    endloop
  endfacet
  facet normal -0.13690991699695587 0.9905834794044495 0
    outer loop
      vertex -0.37599998712539673 0.05700000002980232 0.004000000189989805
      vertex -0.37599998712539673 0.05700000002980232 -0.004000000189989805
      vertex -0.49900001287460327 0.03999999910593033 -0.004000000189989805
    endloop
  endfacet
  facet normal -0.13690991699695587 0.9905834794044495 0
    outer loop
      vertex -0.37599998712539673 0.05700000002980232 0.004000000189989805
      vertex -0.49900001287460327 0.03999999910593033 -0.004000000189989805
      vertex -0.49900001287460327 0.03999999910593033 0.004000000189989805
    endloop
  endfacet
  facet normal 0.027301296591758728 -0.2543984353542328 -0.966714084148407
    outer loop
      vertex -0.17100000381469727 0.05700000002980232 -0.008999999612569809
      vertex -0.17100000381469727 0.03799999877810478 -0.004000000189989805
      vertex -0.37599998712539673 0.01600000075995922 -0.004000000189989805
    endloop
  endfacet
  facet normal 0.013461724855005741 -0.18709515035152435 -0.9822495579719543
    outer loop
      vertex -0.17100000381469727 0.05700000002980232 -0.008999999612569809
      vertex -0.37599998712539673 0.01600000075995922 -0.004000000189989805
      vertex -0.37599998712539673 0.03700000047683716 -0.00800000037997961
    endloop
  endfacet
  facet normal -0.09228739142417908 0.9957324266433716 0
    outer loop
      vertex -0.17100000381469727 0.07599999755620956 0.004000000189989805
      vertex -0.17100000381469727 0.07599999755620956 -0.004000000189989805
      vertex -0.37599998712539673 0.05700000002980232 -0.004000000189989805
    endloop
  endfacet
  facet normal -0.09228739142417908 0.9957324266433716 0
    outer loop
      vertex -0.17100000381469727 0.07599999755620956 0.004000000189989805
      vertex -0.37599998712539673 0.05700000002980232 -0.004000000189989805
      vertex -0.37599998712539673 0.05700000002980232 0.004000000189989805
    endloop
  endfacet
  facet normal 0.0864567831158638 -0.9328231811523438 -0.3498086929321289
    outer loop
      vertex -0.17100000381469727 0.03799999877810478 -0.004000000189989805
      vertex -0.17100000381469727 0.03500000014901161 0.004000000189989805
      vertex -0.37599998712539673 0.01600000075995922 0.004000000189989805
    endloop
  endfacet
  facet normal 0.10670437663793564 -0.9942907691001892 0
    outer loop
      vertex -0.17100000381469727 0.03799999877810478 -0.004000000189989805
      vertex -0.37599998712539673 0.01600000075995922 0.004000000189989805
      vertex -0.37599998712539673 0.01600000075995922 -0.004000000189989805
    endloop
  endfacet
  facet normal -0.9950371980667114 -0.09950371831655502 0
    outer loop
      vertex -0.4970000088214874 0.019999999552965164 -0.00800000037997961
      vertex -0.4950000047683716 0 -0.004000000189989805
      vertex -0.4950000047683716 0 0.004000000189989805
    endloop
  endfacet
  facet normal -0.9950371980667114 -0.09950371831655502 0
    outer loop
      vertex -0.4970000088214874 0.019999999552965164 -0.00800000037997961
      vertex -0.4950000047683716 0 0.004000000189989805
      vertex -0.4970000088214874 0.019999999552965164 0.00800000037997961
    endloop
  endfacet
  facet normal 0.13325469195842743 -0.9910818338394165 0
    outer loop
      vertex -0.37599998712539673 0.01600000075995922 -0.004000000189989805
      vertex -0.37599998712539673 0.01600000075995922 0.004000000189989805
      vertex -0.4950000047683716 0 0.004000000189989805
    endloop
  endfacet
  facet normal 0.13325469195842743 -0.9910818338394165 0
    outer loop
      vertex -0.37599998712539673 0.01600000075995922 -0.004000000189989805
      vertex -0.4950000047683716 0 0.004000000189989805
      vertex -0.4950000047683716 0 -0.004000000189989805
    endloop
  endfacet
  facet normal -0.027095530182123184 0.19604413211345673 0.9802206754684448
    outer loop
      vertex -0.37599998712539673 0.03700000047683716 0.00800000037997961
      vertex -0.37599998712539673 0.05700000002980232 0.004000000189989805
      vertex -0.49900001287460327 0.03999999910593033 0.004000000189989805
    endloop
  endfacet
  facet normal -0.027176104485988617 0.19342991709709167 0.9807376265525818
    outer loop
      vertex -0.37599998712539673 0.03700000047683716 0.00800000037997961
      vertex -0.49900001287460327 0.03999999910593033 0.004000000189989805
      vertex -0.4970000088214874 0.019999999552965164 0.00800000037997961
    endloop
  endfacet
  facet normal 0.02514997310936451 -0.187052920460701 -0.9820278286933899
    outer loop
      vertex -0.37599998712539673 0.03700000047683716 -0.00800000037997961
      vertex -0.37599998712539673 0.01600000075995922 -0.004000000189989805
      vertex -0.4950000047683716 0 -0.004000000189989805
    endloop
  endfacet
  facet normal 0.027176104485988617 -0.19342991709709167 -0.9807376265525818
    outer loop
      vertex -0.37599998712539673 0.03700000047683716 -0.00800000037997961
      vertex -0.4950000047683716 0 -0.004000000189989805
      vertex -0.4970000088214874 0.019999999552965164 -0.00800000037997961
    endloop
  endfacet
  facet normal -0.027543053030967712 0.19604173302650452 -0.9802086353302002
    outer loop
      vertex -0.37599998712539673 0.05700000002980232 -0.004000000189989805
      vertex -0.37599998712539673 0.03700000047683716 -0.00800000037997961
      vertex -0.4970000088214874 0.019999999552965164 -0.00800000037997961
    endloop
  endfacet
  facet normal -0.02674032934010029 0.19347414374351501 -0.9807409048080444
    outer loop
      vertex -0.37599998712539673 0.05700000002980232 -0.004000000189989805
      vertex -0.4970000088214874 0.019999999552965164 -0.00800000037997961
      vertex -0.49900001287460327 0.03999999910593033 -0.004000000189989805
    endloop
  endfacet
  facet normal 0.026279399171471596 -0.18704748153686523 0.9819992780685425
    outer loop
      vertex -0.37599998712539673 0.01600000075995922 0.004000000189989805
      vertex -0.37599998712539673 0.03700000047683716 0.00800000037997961
      vertex -0.4970000088214874 0.019999999552965164 0.00800000037997961
    endloop
  endfacet
  facet normal 0.026023106649518013 -0.193546861410141 0.9807458519935608
    outer loop
      vertex -0.37599998712539673 0.01600000075995922 0.004000000189989805
      vertex -0.4970000088214874 0.019999999552965164 0.00800000037997961
      vertex -0.4950000047683716 0 0.004000000189989805
    endloop
  endfacet
  facet normal -0.9950371980667114 -0.09950371831655502 0
    outer loop
      vertex -0.49900001287460327 0.03999999910593033 -0.004000000189989805
      vertex -0.4970000088214874 0.019999999552965164 -0.00800000037997961
      vertex -0.4970000088214874 0.019999999552965164 0.00800000037997961
    endloop
  endfacet
  facet normal -0.9950371980667114 -0.09950371831655502 0
    outer loop
      vertex -0.49900001287460327 0.03999999910593033 -0.004000000189989805
      vertex -0.4970000088214874 0.019999999552965164 0.00800000037997961
      vertex -0.49900001287460327 0.03999999910593033 0.004000000189989805
    endloop
  endfacet
  facet normal -0.029533162713050842 0.25438228249549866 -0.9666526913642883
    outer loop
      vertex -0.17100000381469727 0.07599999755620956 -0.004000000189989805
      vertex -0.17100000381469727 0.05700000002980232 -0.008999999612569809
      vertex -0.37599998712539673 0.03700000047683716 -0.00800000037997961
    endloop
  endfacet
  facet normal -0.018173616379499435 0.19608373939990997 -0.9804187417030334
    outer loop
      vertex -0.17100000381469727 0.07599999755620956 -0.004000000189989805
      vertex -0.37599998712539673 0.03700000047683716 -0.00800000037997961
      vertex -0.37599998712539673 0.05700000002980232 -0.004000000189989805
    endloop
  endfacet
  facet normal -0.012097427621483803 0.24194854497909546 -0.9702136516571045
    outer loop
      vertex 0.00800000037997961 0.0860000029206276 -0.004000000189989805
      vertex 0.008999999612569809 0.06599999964237213 -0.008999999612569809
      vertex -0.17100000381469727 0.05700000002980232 -0.008999999612569809
    endloop
  endfacet
  facet normal -0.014216066338121891 0.25446757674217224 -0.9669768214225769
    outer loop
      vertex 0.00800000037997961 0.0860000029206276 -0.004000000189989805
      vertex -0.17100000381469727 0.05700000002980232 -0.008999999612569809
      vertex -0.17100000381469727 0.07599999755620956 -0.004000000189989805
    endloop
  endfacet
  facet normal 0.01108037494122982 -0.2216074913740158 0.975072979927063
    outer loop
      vertex 0.008999999612569809 0.04399999976158142 0.004000000189989805
      vertex 0.008999999612569809 0.06599999964237213 0.008999999612569809
      vertex -0.17100000381469727 0.05700000002980232 0.008999999612569809
    endloop
  endfacet
  facet normal 0.01108037494122982 -0.2216074913740158 0.975072979927063
    outer loop
      vertex 0.008999999612569809 0.04399999976158142 0.004000000189989805
      vertex -0.17100000381469727 0.05700000002980232 0.008999999612569809
      vertex -0.17100000381469727 0.03500000014901161 0.004000000189989805
    endloop
  endfacet
  facet normal 0.016862427815794945 -0.221589595079422 0.9749941825866699
    outer loop
      vertex -0.17100000381469727 0.03500000014901161 0.004000000189989805
      vertex -0.17100000381469727 0.05700000002980232 0.008999999612569809
      vertex -0.37599998712539673 0.03700000047683716 0.00800000037997961
    endloop
  endfacet
  facet normal 0.017339490354061127 -0.18708397448062897 0.9821909070014954
    outer loop
      vertex -0.17100000381469727 0.03500000014901161 0.004000000189989805
      vertex -0.37599998712539673 0.03700000047683716 0.00800000037997961
      vertex -0.37599998712539673 0.01600000075995922 0.004000000189989805
    endloop
  endfacet
  facet normal -0.0013253301149234176 -0.24253541231155396 0.9701416492462158
    outer loop
      vertex 0.19200000166893005 0.04500000178813934 0.004000000189989805
      vertex 0.19200000166893005 0.06499999761581421 0.008999999612569809
      vertex 0.008999999612569809 0.06599999964237213 0.008999999612569809
    endloop
  endfacet
  facet normal 0.0012110434472560883 -0.22162094712257385 0.975132167339325
    outer loop
      vertex 0.19200000166893005 0.04500000178813934 0.004000000189989805
      vertex 0.008999999612569809 0.06599999964237213 0.008999999612569809
      vertex 0.008999999612569809 0.04399999976158142 0.004000000189989805
    endloop
  endfacet
  facet normal 0.0013256709789857268 0.2425977885723114 -0.9701260328292847
    outer loop
      vertex 0.19099999964237213 0.08500000089406967 -0.004000000189989805
      vertex 0.19200000166893005 0.06499999761581421 -0.008999999612569809
      vertex 0.008999999612569809 0.06599999964237213 -0.008999999612569809
    endloop
  endfacet
  facet normal 0.0013256709789857268 0.2425977885723114 -0.9701260328292847
    outer loop
      vertex 0.19099999964237213 0.08500000089406967 -0.004000000189989805
      vertex 0.008999999612569809 0.06599999964237213 -0.008999999612569809
      vertex 0.00800000037997961 0.0860000029206276 -0.004000000189989805
    endloop
  endfacet
  facet normal 0.9987523555755615 -0.049937617033720016 0
    outer loop
      vertex 0.2290000021457672 0.0430000014603138 -0.004000000189989805
      vertex 0.23000000417232513 0.06300000101327896 -0.008999999612569809
      vertex 0.23000000417232513 0.06300000101327896 0.008999999612569809
    endloop
  endfacet
  facet normal 0.9987523555755615 -0.049937617033720016 0
    outer loop
      vertex 0.2290000021457672 0.0430000014603138 -0.004000000189989805
      vertex 0.23000000417232513 0.06300000101327896 0.008999999612569809
      vertex 0.2290000021457672 0.0430000014603138 0.004000000189989805
    endloop
  endfacet
  facet normal 0.006226254161447287 0.24282391369342804 0.9700503945350647
    outer loop
      vertex 0.23000000417232513 0.08399999886751175 0.004000000189989805
      vertex 0.19099999964237213 0.08500000089406967 0.004000000189989805
      vertex 0.19200000166893005 0.06499999761581421 0.008999999612569809
    endloop
  endfacet
  facet normal 0.012189648114144802 0.23160332441329956 0.9727339148521423
    outer loop
      vertex 0.23000000417232513 0.08399999886751175 0.004000000189989805
      vertex 0.19200000166893005 0.06499999761581421 0.008999999612569809
      vertex 0.23000000417232513 0.06300000101327896 0.008999999612569809
    endloop
  endfacet
  facet normal -0.013108907267451286 -0.24251478910446167 -0.9700591564178467
    outer loop
      vertex 0.2290000021457672 0.0430000014603138 -0.004000000189989805
      vertex 0.19200000166893005 0.04500000178813934 -0.004000000189989805
      vertex 0.19200000166893005 0.06499999761581421 -0.008999999612569809
    endloop
  endfacet
  facet normal -0.012732460163533688 -0.2419167459011078 -0.9702134728431702
    outer loop
      vertex 0.2290000021457672 0.0430000014603138 -0.004000000189989805
      vertex 0.19200000166893005 0.06499999761581421 -0.008999999612569809
      vertex 0.23000000417232513 0.06300000101327896 -0.008999999612569809
    endloop
  endfacet
  facet normal 0.3363364040851593 -0.9417418837547302 0
    outer loop
      vertex 0.1289999932050705 0.03099999949336052 0.024000000208616257
      vertex 0.11500000208616257 0.026000000536441803 0.024000000208616257
      vertex 0.11500000208616257 0.026000000536441803 -0.024000000208616257
    endloop
  endfacet
  facet normal 0.3363364040851593 -0.9417418837547302 0
    outer loop
      vertex 0.1289999932050705 0.03099999949336052 0.024000000208616257
      vertex 0.11500000208616257 0.026000000536441803 -0.024000000208616257
      vertex 0.1289999932050705 0.03099999949336052 -0.024000000208616257
    endloop
  endfacet
  facet normal 0 0 -1
    outer loop
      vertex 0.1289999932050705 0.03099999949336052 -0.024000000208616257
      vertex 0.11500000208616257 0.026000000536441803 -0.024000000208616257
      vertex 0.11500000208616257 0.04699999839067459 -0.024000000208616257
    endloop
  endfacet
  facet normal 0 0 -1
    outer loop
      vertex 0.1289999932050705 0.03099999949336052 -0.024000000208616257
      vertex 0.11500000208616257 0.04699999839067459 -0.024000000208616257
      vertex 0.1289999932050705 0.04600000008940697 -0.024000000208616257
    endloop
  endfacet
  facet normal 0.07124704867601395 0.9974586963653564 0
    outer loop
      vertex 0.1289999932050705 0.04600000008940697 -0.024000000208616257
      vertex 0.11500000208616257 0.04699999839067459 -0.024000000208616257
      vertex 0.11500000208616257 0.04699999839067459 0.024000000208616257
    endloop
  endfacet
  facet normal 0.07124704867601395 0.9974586963653564 0
    outer loop
      vertex 0.1289999932050705 0.04600000008940697 -0.024000000208616257
      vertex 0.11500000208616257 0.04699999839067459 0.024000000208616257
      vertex 0.1289999932050705 0.04600000008940697 0.024000000208616257
    endloop
  endfacet
  facet normal 0 0 1
    outer loop
      vertex 0.1289999932050705 0.04600000008940697 0.024000000208616257
      vertex 0.11500000208616257 0.04699999839067459 0.024000000208616257
      vertex 0.11500000208616257 0.026000000536441803 0.024000000208616257
    endloop
  endfacet
  facet normal 0 0 1
    outer loop
      vertex 0.1289999932050705 0.04600000008940697 0.024000000208616257
      vertex 0.11500000208616257 0.026000000536441803 0.024000000208616257
      vertex 0.1289999932050705 0.03099999949336052 0.024000000208616257
    endloop
  endfacet
  facet normal 0 0 1
    outer loop
      vertex 0.2029999941587448 0.04600000008940697 0.024000000208616257
      vertex 0.2029999941587448 0.02500000037252903 0.024000000208616257
      vertex 0.22200000286102295 0.026000000536441803 0.024000000208616257
    endloop
  endfacet
  facet normal 0 0 1
    outer loop
      vertex 0.2029999941587448 0.04600000008940697 0.024000000208616257
      vertex 0.22200000286102295 0.026000000536441803 0.024000000208616257
      vertex 0.22200000286102295 0.04600000008940697 0.024000000208616257
    endloop
  endfacet
  facet normal -0.024992190301418304 0.999687671661377 0
    outer loop
      vertex 0.11500000208616257 0.04699999839067459 0.024000000208616257
      vertex 0.11500000208616257 0.04699999839067459 -0.024000000208616257
      vertex 0.07500000298023224 0.04600000008940697 -0.024000000208616257
    endloop
  endfacet
  facet normal -0.024992190301418304 0.999687671661377 0
    outer loop
      vertex 0.11500000208616257 0.04699999839067459 0.024000000208616257
      vertex 0.07500000298023224 0.04600000008940697 -0.024000000208616257
      vertex 0.07500000298023224 0.04600000008940697 0.024000000208616257
    endloop
  endfacet
  facet normal 0 0 1
    outer loop
      vertex 0.2029999941587448 0.04600000008940697 0.024000000208616257
      vertex 0.18700000643730164 0.04699999839067459 0.024000000208616257
      vertex 0.18700000643730164 0.03200000151991844 0.024000000208616257
    endloop
  endfacet
  facet normal 0 0 1
    outer loop
      vertex 0.2029999941587448 0.04600000008940697 0.024000000208616257
      vertex 0.18700000643730164 0.03200000151991844 0.024000000208616257
      vertex 0.2029999941587448 0.02500000037252903 0.024000000208616257
    endloop
  endfacet
  facet normal 0 0 1
    outer loop
      vertex 0.18700000643730164 0.04699999839067459 0.024000000208616257
      vertex 0.15800000727176666 0.04699999839067459 0.024000000208616257
      vertex 0.15800000727176666 0.03200000151991844 0.024000000208616257
    endloop
  endfacet
  facet normal 0 0 1
    outer loop
      vertex 0.18700000643730164 0.04699999839067459 0.024000000208616257
      vertex 0.15800000727176666 0.03200000151991844 0.024000000208616257
      vertex 0.18700000643730164 0.03200000151991844 0.024000000208616257
    endloop
  endfacet
  facet normal 0 0 1
    outer loop
      vertex 0.15800000727176666 0.04699999839067459 0.024000000208616257
      vertex 0.1289999932050705 0.04600000008940697 0.024000000208616257
      vertex 0.1289999932050705 0.03099999949336052 0.024000000208616257
    endloop
  endfacet
  facet normal 0 0 1
    outer loop
      vertex 0.15800000727176666 0.04699999839067459 0.024000000208616257
      vertex 0.1289999932050705 0.03099999949336052 0.024000000208616257
      vertex 0.15800000727176666 0.03200000151991844 0.024000000208616257
    endloop
  endfacet
  facet normal 0.06237828731536865 0.9980525970458984 0
    outer loop
      vertex 0.2029999941587448 0.04600000008940697 -0.024000000208616257
      vertex 0.18700000643730164 0.04699999839067459 -0.024000000208616257
      vertex 0.18700000643730164 0.04699999839067459 0.024000000208616257
    endloop
  endfacet
  facet normal 0.06237828731536865 0.9980525970458984 0
    outer loop
      vertex 0.2029999941587448 0.04600000008940697 -0.024000000208616257
      vertex 0.18700000643730164 0.04699999839067459 0.024000000208616257
      vertex 0.2029999941587448 0.04600000008940697 0.024000000208616257
    endloop
  endfacet
  facet normal 0 1 0
    outer loop
      vertex 0.18700000643730164 0.04699999839067459 -0.024000000208616257
      vertex 0.15800000727176666 0.04699999839067459 -0.024000000208616257
      vertex 0.15800000727176666 0.04699999839067459 0.024000000208616257
    endloop
  endfacet
  facet normal 0 1 0
    outer loop
      vertex 0.18700000643730164 0.04699999839067459 -0.024000000208616257
      vertex 0.15800000727176666 0.04699999839067459 0.024000000208616257
      vertex 0.18700000643730164 0.04699999839067459 0.024000000208616257
    endloop
  endfacet
  facet normal -0.034462276846170425 0.9994059801101685 0
    outer loop
      vertex 0.15800000727176666 0.04699999839067459 -0.024000000208616257
      vertex 0.1289999932050705 0.04600000008940697 -0.024000000208616257
      vertex 0.1289999932050705 0.04600000008940697 0.024000000208616257
    endloop
  endfacet
  facet normal -0.034462276846170425 0.9994059801101685 0
    outer loop
      vertex 0.15800000727176666 0.04699999839067459 -0.024000000208616257
      vertex 0.1289999932050705 0.04600000008940697 0.024000000208616257
      vertex 0.15800000727176666 0.04699999839067459 0.024000000208616257
    endloop
  endfacet
  facet normal 0 0 -1
    outer loop
      vertex 0.2029999941587448 0.02500000037252903 -0.024000000208616257
      vertex 0.18700000643730164 0.03200000151991844 -0.024000000208616257
      vertex 0.18700000643730164 0.04699999839067459 -0.024000000208616257
    endloop
  endfacet
  facet normal 0 0 -1
    outer loop
      vertex 0.2029999941587448 0.02500000037252903 -0.024000000208616257
      vertex 0.18700000643730164 0.04699999839067459 -0.024000000208616257
      vertex 0.2029999941587448 0.04600000008940697 -0.024000000208616257
    endloop
  endfacet
  facet normal 0 0 -1
    outer loop
      vertex 0.18700000643730164 0.03200000151991844 -0.024000000208616257
      vertex 0.15800000727176666 0.03200000151991844 -0.024000000208616257
      vertex 0.15800000727176666 0.04699999839067459 -0.024000000208616257
    endloop
  endfacet
  facet normal 0 0 -1
    outer loop
      vertex 0.18700000643730164 0.03200000151991844 -0.024000000208616257
      vertex 0.15800000727176666 0.04699999839067459 -0.024000000208616257
      vertex 0.18700000643730164 0.04699999839067459 -0.024000000208616257
    endloop
  endfacet
  facet normal 0 0 -1
    outer loop
      vertex 0.15800000727176666 0.03200000151991844 -0.024000000208616257
      vertex 0.1289999932050705 0.03099999949336052 -0.024000000208616257
      vertex 0.1289999932050705 0.04600000008940697 -0.024000000208616257
    endloop
  endfacet
  facet normal 0 0 -1
    outer loop
      vertex 0.15800000727176666 0.03200000151991844 -0.024000000208616257
      vertex 0.1289999932050705 0.04600000008940697 -0.024000000208616257
      vertex 0.15800000727176666 0.04699999839067459 -0.024000000208616257
    endloop
  endfacet
  facet normal -0.4008188247680664 -0.9161573052406311 0
    outer loop
      vertex 0.2029999941587448 0.02500000037252903 0.024000000208616257
      vertex 0.18700000643730164 0.03200000151991844 0.024000000208616257
      vertex 0.18700000643730164 0.03200000151991844 -0.024000000208616257
    endloop
  endfacet
  facet normal -0.4008188247680664 -0.9161573052406311 0
    outer loop
      vertex 0.2029999941587448 0.02500000037252903 0.024000000208616257
      vertex 0.18700000643730164 0.03200000151991844 -0.024000000208616257
      vertex 0.2029999941587448 0.02500000037252903 -0.024000000208616257
    endloop
  endfacet
  facet normal 0 -1 0
    outer loop
      vertex 0.18700000643730164 0.03200000151991844 0.024000000208616257
      vertex 0.15800000727176666 0.03200000151991844 0.024000000208616257
      vertex 0.15800000727176666 0.03200000151991844 -0.024000000208616257
    endloop
  endfacet
  facet normal 0 -1 0
    outer loop
      vertex 0.18700000643730164 0.03200000151991844 0.024000000208616257
      vertex 0.15800000727176666 0.03200000151991844 -0.024000000208616257
      vertex 0.18700000643730164 0.03200000151991844 -0.024000000208616257
    endloop
  endfacet
  facet normal 0.034462276846170425 -0.9994059801101685 0
    outer loop
      vertex 0.15800000727176666 0.03200000151991844 0.024000000208616257
      vertex 0.1289999932050705 0.03099999949336052 0.024000000208616257
      vertex 0.1289999932050705 0.03099999949336052 -0.024000000208616257
    endloop
  endfacet
  facet normal 0.034462276846170425 -0.9994059801101685 0
    outer loop
      vertex 0.15800000727176666 0.03200000151991844 0.024000000208616257
      vertex 0.1289999932050705 0.03099999949336052 -0.024000000208616257
      vertex 0.15800000727176666 0.03200000151991844 -0.024000000208616257
    endloop
  endfacet
  facet normal -0.2747211158275604 -0.9615239500999451 0
    outer loop
      vertex 0.07599999755620956 0.026000000536441803 -0.024000000208616257
      vertex 0.07599999755620956 0.026000000536441803 0.024000000208616257
      vertex 0.06199999898672104 0.029999999329447746 0.024000000208616257
    endloop
  endfacet
  facet normal -0.2747211158275604 -0.9615239500999451 0
    outer loop
      vertex 0.07599999755620956 0.026000000536441803 -0.024000000208616257
      vertex 0.06199999898672104 0.029999999329447746 0.024000000208616257
      vertex 0.06199999898672104 0.029999999329447746 -0.024000000208616257
    endloop
  endfacet
  facet normal 0 -1 0
    outer loop
      vertex 0.11500000208616257 0.026000000536441803 -0.024000000208616257
      vertex 0.11500000208616257 0.026000000536441803 0.024000000208616257
      vertex 0.07599999755620956 0.026000000536441803 0.024000000208616257
    endloop
  endfacet
  facet normal 0 -1 0
    outer loop
      vertex 0.11500000208616257 0.026000000536441803 -0.024000000208616257
      vertex 0.07599999755620956 0.026000000536441803 0.024000000208616257
      vertex 0.07599999755620956 0.026000000536441803 -0.024000000208616257
    endloop
  endfacet
  facet normal 0 0 1
    outer loop
      vertex 0.11500000208616257 0.026000000536441803 0.024000000208616257
      vertex 0.11500000208616257 0.04699999839067459 0.024000000208616257
      vertex 0.07500000298023224 0.04600000008940697 0.024000000208616257
    endloop
  endfacet
  facet normal 0 0 1
    outer loop
      vertex 0.11500000208616257 0.026000000536441803 0.024000000208616257
      vertex 0.07500000298023224 0.04600000008940697 0.024000000208616257
      vertex 0.07599999755620956 0.026000000536441803 0.024000000208616257
    endloop
  endfacet
  facet normal 0 0 -1
    outer loop
      vertex 0.11500000208616257 0.04699999839067459 -0.024000000208616257
      vertex 0.11500000208616257 0.026000000536441803 -0.024000000208616257
      vertex 0.07599999755620956 0.026000000536441803 -0.024000000208616257
    endloop
  endfacet
  facet normal 0 0 -1
    outer loop
      vertex 0.11500000208616257 0.04699999839067459 -0.024000000208616257
      vertex 0.07599999755620956 0.026000000536441803 -0.024000000208616257
      vertex 0.07500000298023224 0.04600000008940697 -0.024000000208616257
    endloop
  endfacet
  facet normal -1 0 0
    outer loop
      vertex 0.06199999898672104 0.04600000008940697 -0.024000000208616257
      vertex 0.06199999898672104 0.029999999329447746 -0.024000000208616257
      vertex 0.06199999898672104 0.029999999329447746 0.024000000208616257
    endloop
  endfacet
  facet normal -1 0 0
    outer loop
      vertex 0.06199999898672104 0.04600000008940697 -0.024000000208616257
      vertex 0.06199999898672104 0.029999999329447746 0.024000000208616257
      vertex 0.06199999898672104 0.04600000008940697 0.024000000208616257
    endloop
  endfacet
  facet normal 0 0 1
    outer loop
      vertex 0.07599999755620956 0.026000000536441803 0.024000000208616257
      vertex 0.07500000298023224 0.04600000008940697 0.024000000208616257
      vertex 0.06199999898672104 0.04600000008940697 0.024000000208616257
    endloop
  endfacet
  facet normal 0 0 1
    outer loop
      vertex 0.07599999755620956 0.026000000536441803 0.024000000208616257
      vertex 0.06199999898672104 0.04600000008940697 0.024000000208616257
      vertex 0.06199999898672104 0.029999999329447746 0.024000000208616257
    endloop
  endfacet
  facet normal 0 0 -1
    outer loop
      vertex 0.07500000298023224 0.04600000008940697 -0.024000000208616257
      vertex 0.07599999755620956 0.026000000536441803 -0.024000000208616257
      vertex 0.06199999898672104 0.029999999329447746 -0.024000000208616257
    endloop
  endfacet
  facet normal 0 0 -1
    outer loop
      vertex 0.07500000298023224 0.04600000008940697 -0.024000000208616257
      vertex 0.06199999898672104 0.029999999329447746 -0.024000000208616257
      vertex 0.06199999898672104 0.04600000008940697 -0.024000000208616257
    endloop
  endfacet
  facet normal 0 1 0
    outer loop
      vertex 0.07500000298023224 0.04600000008940697 0.024000000208616257
      vertex 0.07500000298023224 0.04600000008940697 -0.024000000208616257
      vertex 0.06199999898672104 0.04600000008940697 -0.024000000208616257
    endloop
  endfacet
  facet normal 0 1 0
    outer loop
      vertex 0.07500000298023224 0.04600000008940697 0.024000000208616257
      vertex 0.06199999898672104 0.04600000008940697 -0.024000000208616257
      vertex 0.06199999898672104 0.04600000008940697 0.024000000208616257
    endloop
  endfacet
  facet normal 0 1 0
    outer loop
      vertex 0.22200000286102295 0.04600000008940697 -0.024000000208616257
      vertex 0.22200000286102295 0.04600000008940697 0.024000000208616257
      vertex 0.2280000001192093 0.04600000008940697 0.024000000208616257
    endloop
  endfacet
  facet normal 0 1 0
    outer loop
      vertex 0.22200000286102295 0.04600000008940697 -0.024000000208616257
      vertex 0.2280000001192093 0.04600000008940697 0.024000000208616257
      vertex 0.2280000001192093 0.04600000008940697 -0.024000000208616257
    endloop
  endfacet
  facet normal 0 0 -1
    outer loop
      vertex 0.2029999941587448 0.02500000037252903 -0.024000000208616257
      vertex 0.2029999941587448 0.04600000008940697 -0.024000000208616257
      vertex 0.22200000286102295 0.04600000008940697 -0.024000000208616257
    endloop
  endfacet
  facet normal 0 0 -1
    outer loop
      vertex 0.2029999941587448 0.02500000037252903 -0.024000000208616257
      vertex 0.22200000286102295 0.04600000008940697 -0.024000000208616257
      vertex 0.22200000286102295 0.026000000536441803 -0.024000000208616257
    endloop
  endfacet
  facet normal 0.05255883187055588 -0.9986178278923035 0
    outer loop
      vertex 0.2029999941587448 0.02500000037252903 0.024000000208616257
      vertex 0.2029999941587448 0.02500000037252903 -0.024000000208616257
      vertex 0.22200000286102295 0.026000000536441803 -0.024000000208616257
    endloop
  endfacet
  facet normal 0.05255883187055588 -0.9986178278923035 0
    outer loop
      vertex 0.2029999941587448 0.02500000037252903 0.024000000208616257
      vertex 0.22200000286102295 0.026000000536441803 -0.024000000208616257
      vertex 0.22200000286102295 0.026000000536441803 0.024000000208616257
    endloop
  endfacet
  facet normal 0 1 0
    outer loop
      vertex 0.2029999941587448 0.04600000008940697 -0.024000000208616257
      vertex 0.2029999941587448 0.04600000008940697 0.024000000208616257
      vertex 0.22200000286102295 0.04600000008940697 0.024000000208616257
    endloop
  endfacet
  facet normal 0 1 0
    outer loop
      vertex 0.2029999941587448 0.04600000008940697 -0.024000000208616257
      vertex 0.22200000286102295 0.04600000008940697 0.024000000208616257
      vertex 0.22200000286102295 0.04600000008940697 -0.024000000208616257
    endloop
  endfacet
  facet normal 1 0 0
    outer loop
      vertex 0.2280000001192093 0.03200000151991844 -0.024000000208616257
      vertex 0.2280000001192093 0.04600000008940697 -0.024000000208616257
      vertex 0.2280000001192093 0.04600000008940697 0.024000000208616257
    endloop
  endfacet
  facet normal 1 0 0
    outer loop
      vertex 0.2280000001192093 0.03200000151991844 -0.024000000208616257
      vertex 0.2280000001192093 0.04600000008940697 0.024000000208616257
      vertex 0.2280000001192093 0.03200000151991844 0.024000000208616257
    endloop
  endfacet
  facet normal 0.7071067690849304 -0.7071067690849304 0
    outer loop
      vertex 0.22200000286102295 0.026000000536441803 0.024000000208616257
      vertex 0.22200000286102295 0.026000000536441803 -0.024000000208616257
      vertex 0.2280000001192093 0.03200000151991844 -0.024000000208616257
    endloop
  endfacet
  facet normal 0.7071067690849304 -0.7071067690849304 0
    outer loop
      vertex 0.22200000286102295 0.026000000536441803 0.024000000208616257
      vertex 0.2280000001192093 0.03200000151991844 -0.024000000208616257
      vertex 0.2280000001192093 0.03200000151991844 0.024000000208616257
    endloop
  endfacet
  facet normal 0 0 1
    outer loop
      vertex 0.22200000286102295 0.04600000008940697 0.024000000208616257
      vertex 0.22200000286102295 0.026000000536441803 0.024000000208616257
      vertex 0.2280000001192093 0.03200000151991844 0.024000000208616257
    endloop
  endfacet
  facet normal 0 0 1
    outer loop
      vertex 0.22200000286102295 0.04600000008940697 0.024000000208616257
      vertex 0.2280000001192093 0.03200000151991844 0.024000000208616257
      vertex 0.2280000001192093 0.04600000008940697 0.024000000208616257
    endloop
  endfacet
  facet normal 0 0 -1
    outer loop
      vertex 0.22200000286102295 0.026000000536441803 -0.024000000208616257
      vertex 0.22200000286102295 0.04600000008940697 -0.024000000208616257
      vertex 0.2280000001192093 0.04600000008940697 -0.024000000208616257
    endloop
  endfacet
  facet normal 0 0 -1
    outer loop
      vertex 0.22200000286102295 0.026000000536441803 -0.024000000208616257
      vertex 0.2280000001192093 0.04600000008940697 -0.024000000208616257
      vertex 0.2280000001192093 0.03200000151991844 -0.024000000208616257
    endloop
  endfacet
  facet normal 0 -1 0
    outer loop
      vertex 0.1509999930858612 0.027000000700354576 0.028999999165534973
      vertex 0.12999999523162842 0.027000000700354576 0.028999999165534973
      vertex 0.12999999523162842 0.027000000700354576 -0.028999999165534973
    endloop
  endfacet
  facet normal 0 -1 0
    outer loop
      vertex 0.1509999930858612 0.027000000700354576 0.028999999165534973
      vertex 0.12999999523162842 0.027000000700354576 -0.028999999165534973
      vertex 0.1509999930858612 0.027000000700354576 -0.028999999165534973
    endloop
  endfacet
  facet normal 0 0 -1
    outer loop
      vertex 0.1509999930858612 0.027000000700354576 -0.028999999165534973
      vertex 0.12999999523162842 0.027000000700354576 -0.028999999165534973
      vertex 0.1289999932050705 0.09600000083446503 -0.028999999165534973
    endloop
  endfacet
  facet normal 0 0 -1
    outer loop
      vertex 0.1509999930858612 0.027000000700354576 -0.028999999165534973
      vertex 0.1289999932050705 0.09600000083446503 -0.028999999165534973
      vertex 0.1509999930858612 0.09600000083446503 -0.028999999165534973
    endloop
  endfacet
  facet normal 0 1 0
    outer loop
      vertex 0.1509999930858612 0.09600000083446503 -0.028999999165534973
      vertex 0.1289999932050705 0.09600000083446503 -0.028999999165534973
      vertex 0.1289999932050705 0.09600000083446503 0.028999999165534973
    endloop
  endfacet
  facet normal 0 1 0
    outer loop
      vertex 0.1509999930858612 0.09600000083446503 -0.028999999165534973
      vertex 0.1289999932050705 0.09600000083446503 0.028999999165534973
      vertex 0.1509999930858612 0.09600000083446503 0.028999999165534973
    endloop
  endfacet
  facet normal 0 0 1
    outer loop
      vertex 0.1509999930858612 0.09600000083446503 0.028999999165534973
      vertex 0.1289999932050705 0.09600000083446503 0.028999999165534973
      vertex 0.12999999523162842 0.027000000700354576 0.028999999165534973
    endloop
  endfacet
  facet normal 0 0 1
    outer loop
      vertex 0.1509999930858612 0.09600000083446503 0.028999999165534973
      vertex 0.12999999523162842 0.027000000700354576 0.028999999165534973
      vertex 0.1509999930858612 0.027000000700354576 0.028999999165534973
    endloop
  endfacet
  facet normal 1 0 0
    outer loop
      vertex 0.1509999930858612 0.027000000700354576 -0.028999999165534973
      vertex 0.1509999930858612 0.09600000083446503 -0.028999999165534973
      vertex 0.1509999930858612 0.09600000083446503 0.028999999165534973
    endloop
  endfacet
  facet normal 1 0 0
    outer loop
      vertex 0.1509999930858612 0.027000000700354576 -0.028999999165534973
      vertex 0.1509999930858612 0.09600000083446503 0.028999999165534973
      vertex 0.1509999930858612 0.027000000700354576 0.028999999165534973
    endloop
  endfacet
  facet normal -0.9998949766159058 -0.014491232112050056 0
    outer loop
      vertex 0.1289999932050705 0.09600000083446503 -0.028999999165534973
      vertex 0.12999999523162842 0.027000000700354576 -0.028999999165534973
      vertex 0.12999999523162842 0.027000000700354576 0.028999999165534973
    endloop
  endfacet
  facet normal -0.9998949766159058 -0.014491232112050056 0
    outer loop
      vertex 0.1289999932050705 0.09600000083446503 -0.028999999165534973
      vertex 0.12999999523162842 0.027000000700354576 0.028999999165534973
      vertex 0.1289999932050705 0.09600000083446503 0.028999999165534973
    endloop
  endfacet
  facet normal 0 -1 0
    outer loop
      vertex 0.20200000703334808 0.02800000086426735 0.028999999165534973
      vertex 0.18000000715255737 0.02800000086426735 0.028999999165534973
      vertex 0.18000000715255737 0.02800000086426735 -0.028999999165534973
    endloop
  endfacet
  facet normal 0 -1 0
    outer loop
      vertex 0.20200000703334808 0.02800000086426735 0.028999999165534973
      vertex 0.18000000715255737 0.02800000086426735 -0.028999999165534973
      vertex 0.20200000703334808 0.02800000086426735 -0.028999999165534973
    endloop
  endfacet
  facet normal 0 0 -1
    outer loop
      vertex 0.20200000703334808 0.02800000086426735 -0.028999999165534973
      vertex 0.18000000715255737 0.02800000086426735 -0.028999999165534973
      vertex 0.18000000715255737 0.09600000083446503 -0.028999999165534973
    endloop
  endfacet
  facet normal 0 0 -1
    outer loop
      vertex 0.20200000703334808 0.02800000086426735 -0.028999999165534973
      vertex 0.18000000715255737 0.09600000083446503 -0.028999999165534973
      vertex 0.20100000500679016 0.09600000083446503 -0.028999999165534973
    endloop
  endfacet
  facet normal 0 1 0
    outer loop
      vertex 0.20100000500679016 0.09600000083446503 -0.028999999165534973
      vertex 0.18000000715255737 0.09600000083446503 -0.028999999165534973
      vertex 0.18000000715255737 0.09600000083446503 0.028999999165534973
    endloop
  endfacet
  facet normal 0 1 0
    outer loop
      vertex 0.20100000500679016 0.09600000083446503 -0.028999999165534973
      vertex 0.18000000715255737 0.09600000083446503 0.028999999165534973
      vertex 0.20100000500679016 0.09600000083446503 0.028999999165534973
    endloop
  endfacet
  facet normal 0 0 1
    outer loop
      vertex 0.20100000500679016 0.09600000083446503 0.028999999165534973
      vertex 0.18000000715255737 0.09600000083446503 0.028999999165534973
      vertex 0.18000000715255737 0.02800000086426735 0.028999999165534973
    endloop
  endfacet
  facet normal 0 0 1
    outer loop
      vertex 0.20100000500679016 0.09600000083446503 0.028999999165534973
      vertex 0.18000000715255737 0.02800000086426735 0.028999999165534973
      vertex 0.20200000703334808 0.02800000086426735 0.028999999165534973
    endloop
  endfacet
  facet normal 0.9998918771743774 0.014704292640089989 0
    outer loop
      vertex 0.20200000703334808 0.02800000086426735 -0.028999999165534973
      vertex 0.20100000500679016 0.09600000083446503 -0.028999999165534973
      vertex 0.20100000500679016 0.09600000083446503 0.028999999165534973
    endloop
  endfacet
  facet normal 0.9998918771743774 0.014704292640089989 0
    outer loop
      vertex 0.20200000703334808 0.02800000086426735 -0.028999999165534973
      vertex 0.20100000500679016 0.09600000083446503 0.028999999165534973
      vertex 0.20200000703334808 0.02800000086426735 0.028999999165534973
    endloop
  endfacet
  facet normal -1 0 0
    outer loop
      vertex 0.18000000715255737 0.09600000083446503 -0.028999999165534973
      vertex 0.18000000715255737 0.02800000086426735 -0.028999999165534973
      vertex 0.18000000715255737 0.02800000086426735 0.028999999165534973
    endloop
  endfacet
  facet normal -1 0 0
    outer loop
      vertex 0.18000000715255737 0.09600000083446503 -0.028999999165534973
      vertex 0.18000000715255737 0.02800000086426735 0.028999999165534973
      vertex 0.18000000715255737 0.09600000083446503 0.028999999165534973
    endloop
  endfacet
endsolid scabbard
